<?xml version="1.0" encoding="UTF-8"?>
<svg id="Layer_1" data-name="Layer 1" xmlns="http://www.w3.org/2000/svg" version="1.1" viewBox="0 0 500 500">
  <defs>
    <style>
      .cls-1 {
        fill: #000;
        stroke-width: 0px;
      }
    </style>
  </defs>
  <path class="cls-1" d="M63.57,279.81c.07.36.13.66.26,1.35.73-.47,1.45-.73,1.87-1.23,1.93-2.3,3.77-4.66,5.64-7,22.81-28.55,45.62-57.09,68.42-85.64.39-.49.78-.98,1.41-1.78-1.8,0-3.25,0-4.71,0-.69,0-1.1-.17-1.1-1.01.03-7.91.02-15.83.03-23.74,0-.07.04-.15.08-.31h24.73v24.82c-1.48.11-2.97.23-4.67.36.34.45.57.79.84,1.11,9.3,10.99,18.59,21.97,27.89,32.96.05.06.11.12.16.18,1.55,1.83,1.6,1.92,3.71.84,2.1-1.07,4.24-1.54,6.58-1.43,1.4.06,2.74-.03,4.05-.93,1.07-.73,2.53-.96,3.85-1.25.38-.08,1.11.25,1.29.6,1.02,1.92,2.32,3.52,4,4.97,1.43,1.24,2.58,2.9,3.54,4.56.78,1.35,1.79,2.33,3.09,3.06,2.71,1.52,5.61,2.06,8.66,1.4,2.26-.49,3.76-2.8,4.07-5.19.72-5.53-2.76-8.6-6.47-11.56-2.23-1.78-4.89-2.6-7.7-2.98-.55-.07-1.1-.41-1.56-.76-2.33-1.8-4.58-3.71-6.97-5.43-.96-.69-2.18-1.05-3.32-1.47-1-.37-2.05-.6-3.21-.93,2.56-1.04,5.08-1.16,7.58-.52,1.76.45,3.43,1.24,5.16,1.8,1.6.52,3.23.94,4.85,1.4l.2-.38c-.36-.55-.73-1.1-1.08-1.66-4.45-7.17-6.41-15.02-5.93-23.4.24-4.23,2.03-8.02,4.31-11.56.65-1.01,1.45-1.92,2.06-2.95,1.07-1.81,2.7-2.95,4.5-3.83.76-.37,1.75-.4,2.63-.38,1.91.03,3.84.08,5.73.34,1.72.24,3.43.68,5.08,1.21.55.18,1.04.83,1.37,1.38.42.71.69,1.52.94,2.32.35,1.1,1.06,1.88,2.15,2.01,1.53.19,3.12.37,4.63.14,1.74-.26,2.79-1.92,2.99-4.04.02-.24.02-.48.02-.72.07-6.01-.25-6.35-4.92-10.15-3.19-2.59-6.47-2.78-10.31-1.92-2.71.61-5.63.43-8.45.37-1.34-.03-2.25-1.01-2.73-2.35-.28-.76-.72-1.54-1.3-2.08-1.14-1.05-2.38-2.02-3.68-2.87-.63-.42-1.48-.63-2.24-.7-1.27-.11-2.56-.06-3.84-.02-1.38.04-1.84.38-1.7,1.72.3,2.89.77,5.76,1.22,8.63.13.82.69.65,1.15.28.68-.55,1.32-1.16,1.99-1.74.33-.29.67-.58,1.04-.8,1.11-.65,2.74-.42,3.27.43.61.98.24,2.52-.88,3.28-.75.52-1.6.9-2.38,1.38-3.37,2.05-6.73,4.1-10.1,6.16-.16.1-.33.18-.72.11.21-.4.42-.81.66-1.27-3.14-4.34-4.3-9.4-3.95-14.7.4-6.03,4.51-10.88,11.25-10.93,2.26-.02,4.55.17,6.78.54,2.03.34,3.65,1.57,4.84,3.28.45.66.87,1.34,1.21,1.86,18.08-9.18,36.12-10.23,54.32-.31,2.54-3.28,6.22-4.52,10.04-5.28,8.04-1.6,13.46,4.24,13.58,11.12.07,4.33-1.03,8.36-2.65,12.31-.15.37-.32.74-.55,1.06-.2.28-.5.48-.73.7.27.5.51.93.75,1.37-.08.06-.16.12-.24.18-1.35-.9-2.66-1.86-4.05-2.69-2.64-1.56-5.32-3.05-7.99-4.57-.28-.16-.56-.3-.83-.48-1.22-.83-1.64-2.45-.92-3.45.61-.84,2.32-1,3.4-.21.93.69,1.76,1.5,2.65,2.25.87.73,1.23.63,1.41-.46.42-2.67.9-5.35,1.17-8.04.16-1.65-.27-1.95-1.92-1.98-.28,0-.57.04-.84,0-3.78-.69-6.38,1.43-8.86,3.75-.5.47-.87,1.15-1.12,1.8-.68,1.78-1.68,2.56-3.57,2.6-3.07.06-6.08.08-9.14-.79-3.39-.97-6.55.04-9.14,2.55-.95.92-1.9,1.83-2.92,2.67-1.22,1-1.7,2.27-1.65,3.79.06,1.71-.02,3.45.26,5.13.33,2.02,1.74,3.07,3.79,3.16.92.04,1.85.04,2.75-.08,1.37-.18,2.44-.76,2.98-2.22,1.77-4.73,1.27-3.3,5.61-4.67,1.34-.42,2.83-.39,4.26-.52,1.27-.11,2.55-.26,3.81-.21.8.03,1.64.31,2.38.66,1.91.92,3.31,2.41,4.55,4.13,2.88,3.97,5.19,8.19,5.9,13.09.54,3.75.05,7.48-.65,11.19-.97,5.18-3.06,9.86-5.93,14.24-.12.19-.19.42-.46,1.04,1.86-.5,3.55-.64,4.92-1.38,4.18-2.26,8.59-2.45,13.14-1.93.4.05.79.19,1.44.36-1.52.36-2.76.55-3.92.94-3.2,1.07-6.25,2.44-8.67,4.9-1.37,1.39-3.01,2.11-4.95,2.62-5.44,1.44-9.62,4.76-12.57,9.53-1.34,2.17-.87,6.84.54,8.67,1.45,1.88,3.48,2.14,5.58,2.08,3.14-.09,5.55-1.7,8-3.6,3.95-3.06,6.69-6.92,8.78-11.34.07-.14.17-.26.25-.38.16.02.31-.01.39.05,2.18,1.59,4.82,1.98,7.3,2.82,1.39.47,2.68,1.23,4.06,1.7,2.34.8,4.73,1.46,7.08,2.23,1,.33,1.68.14,2.41-.66,11.04-12.06,22.12-24.09,33.18-36.13.24-.26.44-.55.83-1.02h-2.8v-24.91h24.87v24.82h-6.96c26.39,32.35,52.55,64.4,78.88,96.68.07-.89.12-1.5.18-2.17h24.83v24.93h-3.8c2.98,3.69,5.74,7.12,8.67,10.74h-15.08v10.07h-3.51v-9.92h-93.52c0,1.55,0,3.06,0,4.57,0,1.48-.02,2.96,0,4.44.02.85-.23,1.22-1.18,1.15-2.33-.18-2.33-.14-2.33-2.49,0-2.52,0-5.03,0-7.66h-107.3v10.07h-3.57v-10.1h-96.11v10.12c-.47,0-.78,0-1.09,0q-2.41-.04-2.41-2.42c0-2.2-.05-4.4.02-6.59.03-.98-.31-1.19-1.23-1.19-13,.03-26,.01-39,.01-17.56,0-35.12,0-52.67,0-.39,0-.79,0-1.34,0v10.49c-.23.14-.3.21-.37.21q-3.14.23-3.13-2.92c0-2.2-.04-4.4.02-6.59.03-.95-.27-1.24-1.22-1.22-3.32.06-6.64.03-9.96.03-.51,0-1.01,0-1.52,0-.09-.11-.18-.22-.27-.33,2.42-3.42,4.85-6.84,7.37-10.39h-4.36v-24.98h24.81ZM137.28,172.76c0,3.12.02,6.24-.02,9.35-.01.9.22,1.27,1.21,1.26,6.24-.04,12.48-.04,18.72,0,.95,0,1.23-.31,1.22-1.24-.03-6.24-.03-12.47,0-18.71,0-.86-.23-1.2-1.15-1.2-6.28.03-12.56.03-18.84,0-.9,0-1.18.3-1.16,1.18.04,3.12.02,6.24.02,9.35ZM368.88,172.81c0-3.11-.03-6.23.02-9.34.01-.93-.27-1.25-1.22-1.24-6.23.04-12.46.03-18.69,0-.93,0-1.24.27-1.24,1.22.04,6.23.03,12.45,0,18.68,0,.93.27,1.25,1.22,1.24,6.23-.04,12.46-.03,18.69,0,.93,0,1.25-.27,1.24-1.22-.05-3.11-.02-6.23-.02-9.34ZM455.24,302.79c3.12,0,6.24-.02,9.36.02.91.01,1.26-.23,1.26-1.21-.04-6.24-.04-12.47,0-18.71,0-.95-.31-1.23-1.24-1.23-6.24.03-12.48.03-18.72,0-.86,0-1.2.23-1.19,1.15.03,6.28.03,12.55,0,18.83,0,.89.29,1.18,1.18,1.17,3.12-.04,6.24-.02,9.36-.02ZM247.41,302.79c3.12,0,6.23-.02,9.35.02.9.01,1.26-.22,1.26-1.2-.04-6.23-.03-12.45,0-18.68,0-.9-.22-1.27-1.2-1.26-6.23.04-12.46.03-18.69,0-.9,0-1.26.22-1.26,1.2.04,6.23.04,12.45,0,18.68,0,1.03.37,1.27,1.33,1.26,3.07-.05,6.15-.02,9.23-.02ZM40.56,292.24c0,3.11.03,6.23-.02,9.34-.01.95.3,1.23,1.23,1.23,6.23-.03,12.46-.03,18.69,0,.95,0,1.23-.3,1.23-1.24-.03-6.23-.03-12.45,0-18.68,0-.94-.3-1.23-1.23-1.23-6.23.03-12.46.03-18.69,0-.95,0-1.24.3-1.23,1.24.05,3.11.02,6.23.02,9.34ZM234.91,242.41c-.05-.09-.24-.62-.39-.61-.38.02-.95.19-1.09.47-.66,1.39-1.41,2.79-1.76,4.27-.83,3.58-.62,7.21-.05,10.82,1.12,7.06,4.4,12.73,10.58,16.54.4.24.9.47,1.34.44.5-.04,1.11-.25,1.43-.6.21-.23.06-.88-.07-1.29-.25-.83-.8-1.62-.88-2.45-.31-3.37-.48-6.75-.74-10.12-.03-.41-.17-.98-.46-1.19-1.21-.84-2.47-1.6-3.76-2.32-3.84-2.15-5.04-5.68-4.98-9.76.02-1.32.49-2.63.8-4.19ZM283.56,249.62c-9.11,9.91-18.29,19.89-27.71,30.14h4.07c.05.73.09,1.28.15,2.07,8.95-9.74,17.73-19.29,26.48-28.82-1.03-1.17-1.97-2.23-2.99-3.39ZM251.72,224.32c1.31.23,2.33-.2,2.99-1.22,1.06-1.64,2.14-3.28,3.03-5.02.37-.72.49-1.72.34-2.51-.19-.99-.58-2.07-1.23-2.81-1.7-1.94-3.52-3.77-5.41-5.52-1.33-1.23-4.34-1.21-5.76-.06-1.43,1.15-2.9,2.29-4.1,3.65-1.03,1.17-1.75,2.62-2.55,3.99-.78,1.34-.41,2.63.39,3.83.9,1.36,1.71,2.81,2.82,3.98.74.78,1.88,1.5,2.91,1.62,2.16.25,4.38.07,6.57.07ZM212.55,252.94c.09.15.15.3.25.42,7.28,8.61,14.56,17.22,21.85,25.81.21.25.58.49.88.5,1.62.05,3.23.02,5.13.02-8.36-9.88-16.54-19.53-24.68-29.15-1.19.83-2.27,1.57-3.44,2.39ZM245.36,258.99c2.63,5.07,4.06,10.22,3.8,15.86,4.44-3.11,7.25-15.04,4.86-20.39-2.32,2.55-4.83,4.72-8.66,4.53ZM265.88,196.75c-.12-.01-.24-.02-.36-.03-.06.82-.17,1.64-.19,2.46-.08,4.57-.34,9.16,1.14,13.61.12.36.12.79.06,1.17-.65,4.29-2.53,7.8-6.27,10.26-1.36.89-2.72,1.5-4.34,1.41-1.47-.09-2.94-.28-4.41-.29-.43,0-.86.48-1.29.73.33.37.61.98,1.01,1.07,4.33.99,8.27.65,11.81-2.62,2.99-2.76,5.32-6.75,3.44-12.65-.35-1.09-.55-2.26-.57-3.4-.07-3.91-.03-7.82-.03-11.72ZM230.23,213.04h-.34c-.12.86-.31,1.7-.34,2.56-.16,4.07,1.86,6.94,4.83,9.53,3.48,3.04,7.34,2.88,11.39,2.04.37-.08.61-.76.91-1.16-.43-.28-.83-.76-1.28-.8-.65-.06-1.33.17-2,.3-4.13.84-7.34-1.05-9.82-3.93-2.01-2.34-3.23-5.29-3.34-8.54ZM257.51,264.69c4.08-4.02,3.58-12.43-.67-15.26-.46.92-.81,1.92-1.42,2.73-.74.97-.71,1.76.06,2.63.24.27.42.58.64.87,1.23,1.61,1.88,3.39,1.67,5.45-.11,1.1-.17,2.2-.28,3.58ZM223.1,177.28c.09.17.18.33.27.5.84,0,1.77.24,2.5-.05,1.55-.63,2.35-.73,3.17.08.82.81.83,1.75.2,3.18-.15.35-.06.93.15,1.27.14.23.69.35,1.03.3.94-.13,1.71-.64,1.82-1.63.13-1.17.28-2.4.05-3.53-.66-3.27-3.91-4.7-6.71-2.91-1,.64-1.65,1.84-2.47,2.78ZM266.32,177.55c.1.2.2.39.3.59.79-.09,1.82.09,2.33-.34,1.35-1.12,2.32-1.43,3.35-.56.98.82.93,1.89.14,3.32-.27.49-.08,1.34.14,1.94.08.21.99.36,1.32.18.58-.31,1.31-.84,1.42-1.39.25-1.17.37-2.47.13-3.63-.66-3.31-4.01-4.73-6.81-2.86-.96.65-1.57,1.82-2.34,2.76ZM290.04,235.5c.93-5.01,3.54-8.43,8.5-9.89-1.78-1.06-4.42.03-6.5,2.49-2.4,2.83-3.31,5.87-2,7.4ZM203.41,223.82c4.88,1.98,7.02,5.71,7.49,10.6,1.19-.85,1.01-3.32-.3-5.85-1.82-3.52-5.1-5.89-7.19-4.75ZM296.55,260.56c.24-.98.49-1.59.51-2.2.05-1.5.02-3.01-.07-4.5-.02-.34-.39-.85-.7-.94-.3-.08-.84.18-1.07.46-.29.34-.44.84-.54,1.3-.47,2.19.66,3.87,1.87,5.88ZM184.69,251.52c.1.13.2.25.3.38,1.01-.57,2.02-1.15,3.03-1.72.65-.37,1.36-.67,1.95-1.12.44-.34.74-.87,1.09-1.32-.52-.24-1.03-.56-1.57-.69-.3-.07-.69.13-1.02.26-2.01.75-2.87,2.51-3.77,4.22ZM201.56,258.45l.55.17c.67-1.19,1.52-2.32,1.93-3.59.3-.91.11-2.03-.08-3.01-.07-.34-.78-.56-1.2-.84-.24.41-.61.8-.69,1.23-.16.85-.17,1.73-.23,2.6-.09,1.15-.18,2.3-.27,3.45ZM313.96,255.46c.16-.14.32-.27.49-.41-.64-1.12-1.15-2.34-1.95-3.32-.57-.69-1.5-1.14-2.34-1.54-.61-.29-1.41-.36-1.74.47-.32.84.35,1.17.97,1.52.55.3,1.06.69,1.57,1.06,1,.73,2,1.48,3,2.22ZM320.27,239.19c.08-.11.17-.21.25-.32-.51-.79-.98-1.6-1.53-2.35-.81-1.11-1.87-1.89-3.29-1.86-.44.01-.87.46-1.31.7.28.39.48.87.85,1.14.8.57,1.66,1.06,2.53,1.52.81.43,1.66.78,2.5,1.17ZM180.29,234.74c.08.14.16.28.24.41.96-.41,1.93-.8,2.89-1.22.69-.3,1.41-.55,2.04-.95.47-.3.82-.78,1.22-1.19-.52-.26-1.04-.77-1.55-.75-2.48.07-3.65,1.93-4.84,3.69ZM308.8,259.96c0,.2.01.39.02.59,1.61,0,3.23-.03,4.84,0,1.45.04,2.76-.47,3.28-1.74.64-1.58.83-3.35,1.21-5.04-.16-.03-.33-.07-.49-.1-.11.76-.22,1.53-.34,2.29-.25,1.6-.88,2.95-2.67,3.24-1.55.25-3.12.36-4.68.54-.4.05-.79.14-1.18.22ZM181.62,249.75c-.17,0-.33.02-.5.02.13,1.54.15,3.1.44,4.61.14.72.65,1.68,1.24,1.93,2.17.91,4.52.92,6.88.83-.39-.33-.82-.48-1.27-.56-1.28-.24-2.62-.31-3.85-.69-2.22-.69-2.9-1.74-2.95-4.07-.01-.69,0-1.38,0-2.08ZM197.81,258.81c1.3,1.69,2.69,2.91,5.06,2.74,1.97-.14,2.48-.26,3.55-2.6-.8.45-1.45.63-1.8,1.06-.64.78-1.39.94-2.32.9-1.33-.05-2.2-.79-2.98-1.75-.38-.47-.79-.93-1.5-.35ZM179.81,239.05c-.34-.16-.66-.38-1.02-.48-1.04-.29-1.65-.99-1.81-2-.22-1.36-.48-2.74.44-4.02.21-.3.11-.82.15-1.24-2.92,4.26-2.54,6.78,2.24,7.74ZM300.63,260.77c-.52.05-.92,0-1.27.14-.28.1-.47.42-.71.63-1.78,1.58-3.54,1.48-5.14-.23-.35-.37-.89-.57-1.34-.84-.12.15-.24.3-.36.45.75.74,1.4,1.93,2.28,2.13,2.39.55,4.76.3,6.53-2.27ZM323.86,235.78c-.14.01-.28.03-.42.04.06.46.02.97.2,1.39,1.05,2.4-.01,4.93-2.44,5.71-.23.07-.43.25-.85.49,4.75-.5,5.59-3.27,3.51-7.63ZM230.91,211.47s.09.08.13.12c.14-1.01.34-2.03.42-3.04.07-.91.02-1.82.02-2.73,0-2.31,0-4.62,0-6.93-.19,0-.38,0-.57,0v12.59ZM195.07,220.76c1,.28,1.87.42,2.64.77.79.36,1.46.95,2.23,1.37.22.12.57,0,.85-.01-.02-.36.11-.82-.07-1.05-.98-1.29-3.61-2.35-5.65-1.08ZM306.85,223.19c-1.55-1.24-4.47-.38-5.44.78-.17.21-.1.62-.15.94.32.03.69.18.96.08,1.56-.57,3.1-1.2,4.63-1.8ZM214.26,238.69c.61,1.89,1.16,3.57,1.72,5.3.68-1.12-.14-3.74-1.72-5.3ZM286.21,239.38c-1.74,1.3-2.79,3.81-2.22,4.95.71-1.58,1.42-3.17,2.22-4.95ZM270.19,182.54c-.56-.38-1.02-.76-1.55-1.01-.24-.11-.61.06-.92.1.08.38.03.93.27,1.11.64.49,1.38.58,2.21-.2ZM226.98,182.28c-.55-.37-.98-.75-1.48-.95-.27-.11-.67.06-1,.11.11.37.09.92.34,1.09.65.47,1.39.55,2.15-.25Z"/>
  <path class="cls-1" d="M59.77,337.06c.71-.56,1.29-1.13,1.97-1.54,2.33-1.41,5.21-.16,5.39,2.52.21,3.13.05,6.29.05,9.5h-1.89c0-1.71,0-3.38,0-5.05,0-1.08.02-2.16-.02-3.24-.04-1.07-.2-2.12-1.5-2.41-1.09-.24-3.15.68-3.53,1.59-.11.27-.06.63-.06.94,0,2.71,0,5.41,0,8.18h-2.04c0-1.08,0-2.15,0-3.21-.01-1.84,0-3.68-.06-5.51-.06-1.57-1.06-2.29-2.6-1.98-1.53.3-2.45,1.42-2.45,2.97,0,2.55,0,5.1,0,7.72h-1.88v-12.28h1.83c.03.4.06.79.08,1.02,1.21-.44,2.41-1.13,3.68-1.27,1.38-.16,2.48.72,3.04,2.04Z"/>
  <path class="cls-1" d="M304.92,346.18c-.79.33-1.55.78-2.37.98-2.62.66-4.68-.49-5.5-3.04-.56-1.75-.58-3.53-.04-5.3.93-3.01,4.06-5.02,7.54-3.23.88-.2,1.58-.35,2.46-.55,0,1.68,0,3.1,0,4.53,0,2.52.02,5.04-.03,7.55-.09,4.37-3.07,5.54-6.64,5.22-.81-.07-1.62-.29-2.45-.45v-1.89c1.15.18,2.3.46,3.46.5,2.99.1,4.14-1.35,3.58-4.34ZM305.06,340.85c0-.88.06-1.76-.03-2.63-.03-.34-.31-.82-.61-.95-3.03-1.4-5.5.12-5.66,3.43-.02.48-.02.96,0,1.44.16,2.98,2.09,4.16,4.86,3,.97-.4,1.63-.92,1.45-2.13-.11-.7-.02-1.43-.02-2.15Z"/>
  <path class="cls-1" d="M24.94,337.29h7.88v-6.33h2.02v16.58h-1.96v-8.26h-7.88v8.24h-2.12v-16.59h2.06v6.35Z"/>
  <path class="cls-1" d="M461.45,339.75c-.22,1.27-.39,3.07-.88,4.77-.64,2.2-2.26,3.3-4.42,3.34-2.23.04-3.92-1.03-4.63-3.24-1.14-3.59-1.15-7.24.02-10.82.69-2.12,2.39-3.19,4.57-3.16,2.13.02,3.66,1.12,4.43,3.19.19.52.39,1.06.47,1.6.17,1.26.26,2.53.44,4.33ZM459.27,339c-.16-1.26-.24-2.82-.59-4.32-.37-1.62-1.23-2.19-2.71-2.17-1.36.02-2.25.68-2.6,2.18-.69,2.95-.75,5.94-.05,8.9.43,1.82,1.29,2.45,2.91,2.39,1.39-.05,2.33-.92,2.61-2.64.22-1.33.27-2.69.42-4.35Z"/>
  <path class="cls-1" d="M112.33,334.4c-1.73-1.37-3.42-2.06-5.4-1.88-1.52.14-2.67,1.05-2.82,2.29-.19,1.56.53,2.53,2.25,3,1.07.3,2.16.52,3.23.84,2.4.73,3.55,2.24,3.43,4.4-.13,2.19-1.77,4.08-3.93,4.57-2.35.54-4.58.1-6.75-.81-.27-.11-.52-.55-.57-.87-.09-.58-.03-1.18-.03-1.89.93.5,1.73,1.01,2.58,1.38,1.43.63,2.93.78,4.43.31,1.33-.41,2.08-1.42,2.05-2.62-.03-1.25-.63-2.05-2.02-2.49-1.17-.37-2.38-.61-3.56-.96-2.28-.67-3.53-2.34-3.42-4.46.12-2.09,1.7-3.86,3.82-4.37,1.81-.44,3.55-.13,5.29.32,1,.26,1.65.71,1.4,1.9-.07.34-.01.71-.01,1.32Z"/>
  <path class="cls-1" d="M202.91,330.77c2.19.11,4.3.13,6.38.36,2.39.26,4.02,2.27,4.05,4.71.03,2.69-1.79,4.93-4.39,5.31-1.25.18-2.53.23-3.94.35v6.05h-2.1v-16.78ZM205.06,332.76v6.71c1.07,0,2.07.09,3.05-.02,1.91-.2,3.15-1.72,3.06-3.61-.09-1.84-1.3-3-3.28-3.08-.91-.04-1.82,0-2.83,0Z"/>
  <path class="cls-1" d="M329.26,334.4c-1.22-.59-2.3-1.27-3.48-1.65-2.74-.89-5.27.35-6.31,3.01-.82,2.11-.87,4.31-.21,6.45,1.14,3.66,4.89,4.92,8.31,2.86.53-.32,1.02-.71,1.56-1.09.24,2.93.43,2.41-1.8,3.23-5.89,2.17-11.26-1.23-10.67-8.95.2-2.65,1.07-5.02,3.46-6.49,2.86-1.76,5.77-1.33,8.63.06.24.12.45.52.48.82.08.59.02,1.19.02,1.75Z"/>
  <path class="cls-1" d="M484.67,331.02c0,1.45,0,2.91,0,4.38s0,2.94,0,4.52c.67.04,1.25.07,1.93.11v1.78c-.58.03-1.16.07-1.91.11v5.63h-2v-5.62h-7.37c-.22-1.47-.16-2.6.91-3.7,1.92-1.97,3.71-4.07,5.44-6.21.77-.95,1.58-1.38,3-.99ZM482.6,333.36c-2,2.31-3.79,4.36-5.68,6.54h5.68v-6.54Z"/>
  <path class="cls-1" d="M70.62,335.2c2.03,0,3.96-.13,5.87.02,1.67.13,2.88,1.47,2.93,3.13.08,3.03.02,6.07.02,9.19h-1.85c-.04-.36-.08-.74-.14-1.3-.4.26-.74.48-1.07.7-2.63,1.73-5.65.97-6.56-1.65-.7-2.04.1-4.12,2.13-4.79,1.75-.58,3.62-.78,5.45-1.16.17-1.5-.52-2.46-2.06-2.46-1.57,0-3.14.24-4.72.38v-2.06ZM77.51,340.88c-1.73.41-3.28.66-4.74,1.17-1.13.39-1.23,1.5-.98,2.53.23.98,1.02,1.47,1.97,1.37.91-.1,1.85-.35,2.68-.74.46-.21.93-.79,1.03-1.28.17-.84.05-1.73.05-3.05Z"/>
  <path class="cls-1" d="M429.54,341.61h-8.77c-.5,4.09,2.66,5.25,8.25,3.15.21,2.09.2,2.06-1.79,2.69-1.57.5-3.13.52-4.69.06-3.09-.9-4.6-4-3.8-7.76.77-3.57,3.56-5.39,7.06-4.6,1.39.31,2.46,1.09,2.91,2.41.42,1.24.54,2.59.83,4.04ZM427.29,339.92c-.06-2.47-1.08-3.43-3.47-3.33-1.84.07-3.14,1.49-3.05,3.33h6.52Z"/>
  <path class="cls-1" d="M393.53,344.72c.02,2.25.56,1.95-1.89,2.75-1.57.52-3.13.5-4.69.03-3.08-.94-4.54-4.01-3.72-7.8.76-3.53,3.61-5.35,7.11-4.52,1.52.36,2.58,1.3,3.01,2.78.32,1.13.41,2.32.62,3.65h-8.79c-.17,4.25,3.06,5.42,8.34,3.1ZM385.14,339.91h6.66c-.16-2.31-.99-3.27-2.82-3.32-2.27-.06-3.56,1.01-3.84,3.32Z"/>
  <path class="cls-1" d="M125.36,341.62h-8.69c-.24,2.26.9,3.95,2.91,4.31,1.93.34,3.69-.24,5.35-1.29.19,2.22.18,2.19-1.8,2.82-1.57.5-3.13.51-4.69.06-3.09-.9-4.59-4-3.79-7.76.76-3.56,3.57-5.38,7.07-4.58,1.79.41,2.83,1.6,3.24,3.3.23.96.25,1.96.39,3.15ZM123.25,339.93c-.23-2.6-1.12-3.42-3.46-3.35-1.85.06-3.12,1.39-3.14,3.35h6.61Z"/>
  <path class="cls-1" d="M157.61,344.7c.05,2.31.49,1.97-1.86,2.76-1.57.53-3.12.51-4.69.04-3.08-.93-4.56-4.01-3.75-7.78.76-3.54,3.59-5.36,7.09-4.55,1.73.4,2.77,1.56,3.19,3.21.25.99.27,2.04.41,3.21h-8.71c-.29,4.22,3.16,5.48,8.32,3.1ZM155.86,339.92c-.12-2.55-1.16-3.49-3.62-3.33-1.76.12-3.03,1.57-2.9,3.33h6.52Z"/>
  <path class="cls-1" d="M193.62,341.61h-8.77c-.5,4.09,2.67,5.26,8.25,3.15.22,2.09.2,2.06-1.79,2.69-1.57.5-3.13.52-4.69.07-3.09-.9-4.6-4-3.8-7.76.77-3.57,3.56-5.39,7.06-4.6,1.39.31,2.46,1.09,2.91,2.41.42,1.24.54,2.59.83,4.04ZM191.38,339.92c-.11-2.55-1.16-3.49-3.61-3.33-1.76.12-3.03,1.56-2.91,3.33h6.52Z"/>
  <path class="cls-1" d="M248.15,341.61c-.19,4.24,3.08,5.43,8.25,3.14.35,1.97.26,2.07-1.56,2.66-1.52.49-3.04.6-4.58.2-1.81-.48-3.17-1.5-3.79-3.32-.75-2.17-.69-4.33.34-6.38,1.18-2.34,3.56-3.2,5.68-2.91,2.53.35,3.72,1.66,4.16,4.35.12.7.1,1.41.16,2.27h-8.66ZM254.77,339.94c-.22-2.59-1.12-3.42-3.46-3.35-1.85.06-3.11,1.38-3.15,3.35h6.61Z"/>
  <path class="cls-1" d="M373.46,341.65h-8.66c-.21,4.2,3.1,5.4,8.24,3.1.36,1.96.27,2.07-1.55,2.66-1.52.49-3.04.61-4.58.2-1.81-.48-3.17-1.5-3.8-3.32-.75-2.17-.7-4.33.34-6.38,1.18-2.34,3.56-3.21,5.68-2.91,2.52.35,3.72,1.66,4.17,4.35.12.7.1,1.42.16,2.31ZM371.39,339.92c-.14-2.56-1.17-3.49-3.63-3.32-1.76.12-3.03,1.57-2.89,3.32h6.52Z"/>
  <path class="cls-1" d="M440.6,345.73h7.88v1.82h-10.1c-.2-1.27-.13-2.29.97-3.29,1.71-1.54,3.24-3.31,4.74-5.07.6-.71,1.02-1.62,1.35-2.5.45-1.17.42-2.39-.49-3.37-.97-1.04-2.24-.97-3.47-.67-.91.22-1.76.67-2.63,1.01-.44-2.01-.43-2.14,1.57-2.57,1.17-.25,2.45-.44,3.61-.25,2.97.49,4.48,2.79,3.62,5.68-.42,1.44-1.25,2.85-2.23,4-1.51,1.77-3.3,3.3-4.98,4.94.05.09.09.18.14.27Z"/>
  <path class="cls-1" d="M465.44,345.74h8.22v1.79h-10.04c-.27-1.22-.19-2.23.91-3.24,1.73-1.59,3.28-3.37,4.82-5.16.58-.68.98-1.55,1.3-2.39.45-1.21.46-2.47-.53-3.47-.99-1-2.26-.92-3.48-.6-.87.22-1.69.65-2.53.98-.54-1.79-.4-2.18,1.36-2.53,1.26-.25,2.61-.45,3.85-.26,2.89.45,4.39,2.76,3.57,5.61-.42,1.44-1.24,2.86-2.21,4.01-1.51,1.79-3.29,3.34-5.23,5.26Z"/>
  <path class="cls-1" d="M341.27,341.39c.03,2.59-.6,4.89-3.22,5.99-3.78,1.59-7.45-.72-7.77-4.87-.08-1.02.01-2.07.18-3.08.5-3.06,2.94-4.6,5.72-4.45,2.89.15,4.91,2.34,5.1,5.34.02.36,0,.72,0,1.08ZM332.2,341.67s.07.01.11.02c.03.44.04.88.11,1.31.3,1.79,1.47,2.93,3.05,2.99,1.94.08,3.24-.74,3.53-2.62.21-1.38.15-2.86-.11-4.23-.3-1.56-1.4-2.27-2.91-2.3-1.72-.04-2.81.61-3.3,2.16-.27.86-.32,1.79-.46,2.68Z"/>
  <path class="cls-1" d="M233.75,341.41c.04,3.06-1.1,5.15-3.24,5.99-3.82,1.51-7.45-.76-7.76-4.91-.08-1.02.01-2.07.18-3.08.51-3.07,2.97-4.59,5.73-4.44,2.89.17,4.9,2.36,5.08,5.36.02.36,0,.72,0,1.08ZM228.2,336.83c-1.5,0-2.7.64-2.98,2.06-.3,1.48-.36,3.08-.12,4.57.3,1.83,1.52,2.57,3.35,2.53,1.59-.04,2.79-.92,3.05-2.64.2-1.34.17-2.78-.08-4.12-.32-1.7-1.48-2.41-3.21-2.4Z"/>
  <path class="cls-1" d="M47.9,347.57h-1.78c-.05-.4-.11-.81-.17-1.24-.98.46-1.89,1.03-2.89,1.33-2.23.66-4.28-.55-4.64-2.84-.25-1.6-.2-3.26-.24-4.89-.04-1.55,0-3.09,0-4.69h2.08c0,.43,0,.85,0,1.27.01,2.4-.02,4.79.05,7.19.05,1.74.89,2.41,2.63,2.28,1.91-.14,3.09-1.39,3.09-3.29,0-2.44,0-4.87,0-7.4h1.87v12.28Z"/>
  <path class="cls-1" d="M405.62,347.59h-1.93c0-1.36.02-2.7,0-4.05-.02-1.6.03-3.2-.15-4.78-.17-1.52-.85-1.96-2.36-1.94-2.12.03-3.26,1.17-3.26,3.27v7.46h-1.86v-12.3h1.8c.04.41.07.79.12,1.31.52-.33.94-.61,1.37-.87,3.1-1.86,6.21-.17,6.26,3.43.04,2.79,0,5.57,0,8.46Z"/>
  <path class="cls-1" d="M353.25,347.56h-1.88c0-2.07.02-4.13,0-6.19-.01-.95-.07-1.91-.2-2.86-.16-1.17-.93-1.86-2.08-1.64-1.05.2-2.08.67-3.04,1.17-.29.15-.42.81-.43,1.24-.04,2.71-.02,5.43-.02,8.24h-1.87v-12.27h1.79c.04.36.09.73.14,1.18.92-.43,1.78-.97,2.72-1.25,2.38-.72,4.65.59,4.81,3.02.21,3.09.05,6.2.05,9.37Z"/>
  <path class="cls-1" d="M294.26,347.59h-1.93c0-.73.01-1.43,0-2.13-.05-2.27,0-4.55-.19-6.82-.12-1.4-.81-1.82-2.2-1.82-2.21,0-3.37,1.13-3.37,3.28v7.46h-1.86v-12.31h1.81c.04.41.07.8.12,1.32.53-.34.94-.62,1.38-.88,3.11-1.85,6.2-.16,6.25,3.44.04,2.79,0,5.57,0,8.46Z"/>
  <path class="cls-1" d="M167.76,347.56c0-1.59,0-3.1,0-4.61,0-.92.02-1.84-.01-2.76-.04-1.23.08-2.65-1.33-3.2-1.47-.58-2.84.05-3.97,1.03-.29.25-.43.82-.44,1.25-.04,2.36-.02,4.71-.02,7.07,0,.39,0,.78,0,1.22h-1.86v-12.31h1.81c.04.41.07.8.12,1.32.52-.34.94-.62,1.38-.88,3.11-1.85,6.2-.16,6.25,3.44.04,2.79,0,5.57,0,8.42h-1.93Z"/>
  <path class="cls-1" d="M127.46,335.23h1.84c.04.42.07.8.12,1.33.51-.32.93-.6,1.36-.86,3.09-1.86,6.22-.18,6.27,3.4.04,2.68,0,5.35,0,8.03,0,.11-.05.23-.09.41h-1.83c0-.39,0-.8,0-1.22,0-2.28.02-4.56-.03-6.83-.04-1.56-.62-2.42-1.62-2.63-1.16-.25-3.54.58-3.99,1.46-.15.29-.12.69-.13,1.04,0,2.71,0,5.42,0,8.19h-1.9v-12.32Z"/>
  <path class="cls-1" d="M92.18,347.59h-1.93c0-.43,0-.85,0-1.27,0-2.28.02-4.56-.03-6.83-.04-1.56-.63-2.42-1.62-2.63-1.17-.25-3.54.59-3.98,1.46-.15.29-.12.69-.12,1.04,0,2.71,0,5.42,0,8.19h-1.85v-12.29h1.8c.04.4.07.78.12,1.3.51-.32.93-.6,1.36-.86,3.1-1.86,6.22-.18,6.27,3.41.04,2.79,0,5.58,0,8.48Z"/>
  <path class="cls-1" d="M258.14,345.1c1.54.38,3.04.79,4.57,1.09.39.08.96-.02,1.25-.27.43-.38.96-.97.95-1.46,0-.54-.45-1.33-.92-1.56-.86-.44-1.89-.55-2.85-.79-2.05-.51-2.97-1.59-2.94-3.48.03-1.76,1.16-3.15,3.05-3.43,1.15-.17,2.37-.14,3.52.03,1.91.28,2.01.51,1.79,2.31-1.34-.31-2.69-.77-4.07-.91-1.29-.13-2.23.65-2.28,1.62-.06,1.24.75,1.75,1.83,1.99.7.15,1.39.31,2.09.47,1.92.44,2.94,1.55,2.98,3.22.03,1.64-1.22,3.2-2.91,3.67-1.89.52-3.7.21-5.47-.49-1.22-.48-.43-1.5-.59-2Z"/>
  <path class="cls-1" d="M268.15,345.01c1.8.45,3.3.88,4.82,1.18.43.09,1.05-.03,1.36-.3.43-.37.89-.99.9-1.5,0-.51-.42-1.27-.87-1.48-.92-.43-1.97-.56-2.97-.82-2.02-.52-2.93-1.63-2.88-3.54.04-1.69,1.18-3.08,3-3.35,1.11-.17,2.28-.14,3.4,0,2.05.26,2.12.43,1.98,2.37-1.29-.33-2.6-.68-3.92-.97-.33-.07-.81-.05-1.03.15-.54.45-1.21.97-1.37,1.58-.23.86.42,1.5,1.27,1.75.84.25,1.7.42,2.55.61,1.94.44,2.96,1.5,3.03,3.18.06,1.63-1.17,3.22-2.86,3.71-1.93.56-3.83.32-5.55-.57-.51-.26-.6-1.33-.87-2Z"/>
  <path class="cls-1" d="M363.05,330.46v1.72c-3.46-.53-4.49.18-4.21,2.98h3.26v1.61h-3.27v10.78h-2.02v-10.64c-.5-.06-.86-.1-1.31-.15v-1.5c.4-.05.79-.1,1.15-.14,1.17-4.77,2.12-5.48,6.41-4.66Z"/>
  <path class="cls-1" d="M181.72,338.14c-3.73-1.71-5.34-1.68-6.61-.08-1.24,1.56-1.26,5.1-.03,6.67,1.25,1.61,2.77,1.65,6.28.16.38,2.1-.37,2.89-3.13,2.94-3.71.07-5.74-1.8-6.1-5.43-.1-1.05-.02-2.17.24-3.2,1.08-4.23,5.33-5.11,8.68-3.45.44.22.41,1.37.68,2.38Z"/>
  <path class="cls-1" d="M244.49,344.82c.33,2.18-.43,2.95-3.16,3.02-3.12.07-5.34-1.37-5.94-4.52-.38-2.02-.28-3.97.78-5.78,1.65-2.8,5.26-3.22,8.01-1.77.44.23.39,1.37.65,2.41-2.48-1.29-4.7-2.37-6.66,0-1.27,1.54-1.23,5.11.06,6.54,1.98,2.21,4.15,1.26,6.26.09Z"/>
  <path class="cls-1" d="M417.64,338.14c-3.72-1.71-5.34-1.68-6.61-.08-1.21,1.52-1.26,4.99-.11,6.58,1.23,1.69,2.78,1.75,6.36.26.37,2.1-.38,2.89-3.13,2.94-3.72.07-5.74-1.81-6.1-5.43-.1-1.05-.02-2.17.24-3.2,1.08-4.24,5.34-5.11,8.68-3.45.44.22.41,1.38.67,2.38Z"/>
  <path class="cls-1" d="M140.42,336.88c-.55-.05-.94-.08-1.38-.11v-1.51c.43-.04.85-.08,1.35-.13v-3.44h1.98v3.46h3.91v1.66h-3.73c0,2.68-.07,5.25.03,7.83.04,1.05.91,1.43,1.91,1.34.59-.05,1.17-.18,1.75-.28.32,1.74.33,1.8-1.39,2.07-2.36.37-4.37-.61-4.43-3.75-.05-2.35,0-4.69,0-7.13Z"/>
  <path class="cls-1" d="M377.74,347.6h-1.84v-12.33h1.79c.03.51.05,1.02.09,1.68,1.42-.85,2.65-2.02,4.46-1.69v1.7c-1.3.41-2.55.71-3.71,1.24-.4.18-.75.92-.76,1.42-.07,2.62-.03,5.25-.03,7.99Z"/>
  <path class="cls-1" d="M217.42,347.56h-1.88v-12.29h1.83c.03.51.05,1.01.09,1.68,1.41-.86,2.65-2.02,4.46-1.7v1.77c-1.18.31-2.33.55-3.42.93-.81.29-1.13.94-1.1,1.88.07,2.54.03,5.09.03,7.71Z"/>
  <path class="cls-1" d="M281.43,347.6h-1.75v-12.34h1.75v12.34Z"/>
  <path class="cls-1" d="M281.65,332.96h-2.18v-2.02h2.18v2.02Z"/>
  <path class="cls-1" d="M248.49,216.84c1.88,0,3.76-.01,5.64,0,1.59.01,2.18.85,1.61,2.33-.41,1.08-.93,2.12-1.44,3.16-.38.78-1.01,1.17-1.93,1.16-2.64-.03-5.28-.03-7.91,0-.91.01-1.56-.33-1.95-1.12-.53-1.08-1.07-2.15-1.49-3.27-.53-1.43.07-2.25,1.59-2.26,1.96-.02,3.92,0,5.88,0Z"/>
</svg>