<?xml version="1.0" encoding="UTF-8"?>
<svg id="Layer_1" data-name="Layer 1" xmlns="http://www.w3.org/2000/svg" version="1.1" viewBox="0 0 500 500">
  <defs>
    <style>
      .cls-1 {
        fill: #fdcb0f;
      }

      .cls-1, .cls-2, .cls-3, .cls-4, .cls-5, .cls-6, .cls-7, .cls-8, .cls-9, .cls-10, .cls-11, .cls-12, .cls-13, .cls-14, .cls-15, .cls-16, .cls-17, .cls-18, .cls-19, .cls-20, .cls-21, .cls-22, .cls-23, .cls-24, .cls-25, .cls-26 {
        stroke-width: 0px;
      }

      .cls-2 {
        fill: #b86562;
      }

      .cls-3 {
        fill: #ffcd08;
      }

      .cls-4 {
        fill: #fbca13;
      }

      .cls-5 {
        fill: #182f4f;
      }

      .cls-6 {
        fill: #d3af27;
      }

      .cls-7 {
        fill: #dfb722;
      }

      .cls-8 {
        fill: #142d4d;
      }

      .cls-9 {
        fill: #f7c713;
      }

      .cls-10 {
        fill: #112b4a;
      }

      .cls-11 {
        fill: #f5c616;
      }

      .cls-12 {
        fill: #f4c516;
      }

      .cls-13 {
        fill: #112a4c;
      }

      .cls-14 {
        fill: #132c4d;
      }

      .cls-15 {
        fill: #fcca10;
      }

      .cls-16 {
        fill: #f0f0f0;
      }

      .cls-17 {
        fill: #152d4e;
      }

      .cls-18 {
        fill: #fccb12;
      }

      .cls-19 {
        fill: #eabe1d;
      }

      .cls-20 {
        fill: #fecb0d;
      }

      .cls-21 {
        fill: #f9c811;
      }

      .cls-22 {
        fill: #f1f2f4;
      }

      .cls-23 {
        fill: #968832;
      }

      .cls-24 {
        fill: #0f294b;
      }

      .cls-25 {
        fill: #ececed;
      }

      .cls-26 {
        fill: #e5ba1f;
      }
    </style>
  </defs>
  <path class="cls-24" d="M202.3,226.33c-1.11,0-2-.8-3.1-.86.17-.09.34-.19.52-.25,3.6-1.24,7.08-.64,10.44.84,2.15.95,4.29,1.86,6.79,1.84-.13-.29-.19-.52-.32-.71-3.35-4.92-5.44-10.31-6.32-16.2-.53-3.54-.84-7.07-.1-10.59,1.13-5.38,4-9.88,7.44-14.04,1.23-1.48,2.94-2.6,4.87-2.48,2.23.14,4.47.03,6.68.39,3.19.52,6.45.95,7.18,5.06.25,1.4,1.45,1.95,2.75,2.11,1.27.16,2.56.11,3.82-.1,1.63-.26,2.69-1.2,3.03-2.82.5-2.37.27-4.77.11-7.15-.03-.5-.41-.85-.74-1.2-1.23-1.31-2.6-2.48-3.92-3.7-2.68-2.46-5.85-3.45-9.28-2.38-3.04.94-6.07.84-9.13.75-1.62-.05-2.76-.89-3.21-2.54-.22-.82-.69-1.52-1.36-2.06-1.16-.91-2.31-1.84-3.49-2.73-.58-.44-1.28-.71-1.99-.74-1.44-.06-2.88-.07-4.31.02-1.46.09-1.74.51-1.82,1.96-.15,2.72.73,5.29,1.17,7.91.07.4-.14,1.01.38,1.17.58.18,1.04-.23,1.47-.61.8-.72,1.59-1.46,2.47-2.09,1.13-.81,2.67-.62,3.24.28.61.96.15,2.5-.96,3.24-.3.2-.61.38-.93.55-2.37,1.28-4.87,2.33-7.06,3.96-1.59,1.18-3.31,2.18-4.98,3.27,0-.12-.05-.3,0-.35,1.18-1,.15-1.83-.33-2.5-1.67-2.28-2.14-4.97-2.67-7.61-.7-3.48-.73-6.93.85-10.31,1.74-3.71,5.78-6.31,9.92-6.4,2.3-.05,4.55.22,6.78.58,2.31.37,4.05,1.78,5.32,3.76.36.56.57,1.46,1.15,1.55.45.07,1-.68,1.54-1,2.83-1.69,5.92-2.76,9.07-3.66,3.04-.87,6.09-1.7,9.2-2.28,1.44-.27,2.92-.12,4.39-.29,2.07-.23,4.16-.24,6.26-.15,8.07.32,15.49,2.76,22.58,6.44.78.41,1.2.46,1.71-.34.5-.78,1.31-1.31,2.11-1.74,4.42-2.41,8.95-3.86,14.08-2.16,3.38,1.12,6.67,6.47,6.76,9.75.13,4.73-.92,9.18-2.81,13.45-.45,1.01-1.34,1.83-.47,3-.11-.03-.25-.04-.34-.11-3.46-2.41-6.87-4.9-10.76-6.61-.69-.3-1.34-.71-1.96-1.13-1.05-.71-1.45-2.24-.87-3.16.52-.83,1.93-1.05,3.04-.41.48.28.9.66,1.33,1.02.61.52,1.16,1.11,1.82,1.56.38.26,1.12.78,1.26-.2.41-2.84,1.42-5.58,1.28-8.5-.07-1.62-.4-2.03-2.06-2.09-1.28-.05-2.56-.04-3.84,0-.81,0-1.58.29-2.23.76-1.16.85-2.27,1.75-3.4,2.64-.74.58-1.22,1.34-1.48,2.25-.39,1.36-1.31,2.26-2.7,2.35-3.1.2-6.18.36-9.26-.57-2.78-.84-5.56-.75-8.08,1.14-1.99,1.5-3.83,3.13-5.55,4.92-.47.49-.73,1.04-.74,1.71-.02,1.8-.11,3.6-.03,5.39.1,2.33,1.27,3.68,3.38,4.01,1.22.19,2.48.23,3.71.07,1.3-.17,2.34-.74,2.78-2.11.25-.75.61-1.46.88-2.21.39-1.13,1.22-1.6,2.34-1.95,3.05-.95,6.17-1.04,9.32-1.19,1.32-.06,2.52-.05,3.69.53,1.23.62,2.29,1.45,3.1,2.58.97,1.37,2,2.7,2.91,4.11,2.07,3.22,3.74,6.67,4.12,10.5.83,8.35-1.18,16.12-5.28,23.39-.52.92-1.11,1.81-1.74,2.81,2.57.02,4.71-.87,6.86-1.84,4.24-1.94,8.62-1.78,13.03-.68-1.64.03-3.24.27-4.79.84-.27.1-.4.2-.45.45-.64,0-1.29-.06-1.87.3-2.15,1.33-4.47,2.39-6.25,4.3-.75.8-1.57,1.67-2.84,1.85-4.45.65-7.95,3.05-11.18,6.04-2.78,2.57-4.23,5.53-3.79,9.43.3,2.66,2.1,5,4.77,5.3,1.86.21,3.73.05,5.53-.54,3-.97,5.05-3.31,7.31-5.28,2.68-2.34,4.45-5.42,5.93-8.63.38-.82.73-.88,1.4-.41.88.62,1.8,1.15,2.87,1.41,1.31.32,2.61.68,3.87,1.15.96.36,1.82,1.02,2.79,1.35,2.61.88,5.26,1.6,7.87,2.48,1.34.45,2.21.17,3.2-.91,10.97-12.01,21.99-23.97,33-35.94.27-.3.64-.55.73-1.01-.98-.05-2.2.25-2.72-.22-.62-.56-.13-1.8-.2-2.75-.02-.2-.03-.4-.04-.6.01-6.75.04-13.5.02-20.24,0-.85.1-1.22,1.12-1.21,7.59.05,15.18.05,22.77,0,.91,0,1.1.23,1.1,1.11-.04,7.63-.03,15.26,0,22.88,0,.75-.17,1.11-.96,1.01h-6.23c26.4,32.37,52.66,64.57,79.14,97.04,0-.74.05-1.13-.01-1.51-.16-.94.26-1.15,1.12-1.09.95.07,1.92,0,2.87-.02,6.56.01,13.11.05,19.67.02.98,0,1.34.13,1.33,1.26-.06,7.55-.05,15.11-.01,22.66,0,.8-.14,1.15-1.02,1.07-.83-.08-1.67-.02-2.75-.02,2.75,3.78,5.74,7.1,8.62,10.82h-9.27c-1.6,0-3.2.05-4.8-.02-.88-.04-1.17.17-1.15,1.1.07,2.64-.01,5.28.04,7.91.02.86-.18,1.19-1.09,1.21-2.5.06-2.5.09-2.5-2.42,0-2.24-.03-4.48.02-6.71.02-.79-.14-1.1-1.03-1.1-25.02.03-50.05.02-75.07.02-5.28,0-10.55.03-15.83-.03-1.1-.01-1.52.19-1.47,1.41.11,2.51,0,5.04.05,7.55.02,1-.2,1.45-1.34,1.33-2.24-.22-2.25-.16-2.25-2.43s-.04-4.48.02-6.71c.03-.89-.21-1.14-1.12-1.14-9.39.03-18.79.02-28.18.02h-76.27q-1.69,0-1.69,1.73c0,2.56-.02,5.12,0,7.67,0,.66-.15,1.02-.87.84-.88-.23-2.06.54-2.59-.25-.41-.61-.12-1.7-.13-2.58,0-2.08-.05-4.16.02-6.23.03-.93-.22-1.2-1.18-1.19-12.87.03-25.74.02-38.62.02-18.31,0-36.62.01-54.93-.02-1.06,0-1.35.24-1.32,1.31.08,2.68,0,5.36.04,8.03,0,.69-.11,1.1-.92.91-.11-.03-.24-.02-.36-.02-1.54,0-2.31-.8-2.32-2.38,0-2.24-.04-4.48.02-6.71.03-.89-.21-1.13-1.13-1.13-12.27.03-24.55.02-36.82.02-18.27,0-36.54.02-54.81-.01-1.06,0-1.44.19-1.4,1.34.09,2.83,0,5.68.04,8.51,0,.73-.2.93-.94.94-2.66.03-2.66.06-2.65-2.59,0-2.36-.04-4.72.02-7.07.02-.89-.22-1.16-1.13-1.15-3.87.05-7.74.02-11.72.02,1.92-3.96,4.82-7.14,7.38-10.81-1.37,0-2.55-.04-3.73.02-.71.03-.84-.23-.84-.88.02-7.71.03-15.43,0-23.14,0-.83.28-.95,1.01-.95,6.44.03,12.87.02,19.31.01.28,0,.56-.03.84-.05,1.04.02,2.08.03,3.11.05.35,0,.75-.07.7.51-.1,1.06.49.83,1.12.61.61-.21.96-.68,1.34-1.15,3.66-4.59,7.31-9.19,10.98-13.78,21.19-26.53,42.39-53.06,63.58-79.59.2-.25.53-.46.51-.9-1.88-.21-3.71-.13-5.55-.11-.43-.29-.24-.73-.24-1.1,0-7.63,0-15.25-.03-22.88,0-.8.13-1.08,1.01-1.07,7.67.04,15.33.03,23,0,.66,0,.98.05.97.87-.05,8.02-.04,16.05-.05,24.07h-5c.08.67.44.91.68,1.2,9.71,11.51,19.43,23.01,29.14,34.51.55.65,1.05.72,1.86.36,1.74-.77,3.42-1.77,5.37-1.91,2.28-.16,4.57.34,6.77-1.04.77-.48,2-.63,2.99-1.08.76-.34,1.38-.35,1.89.69.65,1.33,1.4,2.69,2.64,3.63,2.01,1.51,3.71,3.32,4.74,5.61.76,1.69,2.07,2.68,3.6,3.46,1.46.75,3.06,1.26,4.69,1.34,2.78.14,5.59-.13,6.95-3.06,1.1-2.38,1.31-5.17.14-7.41-2.35-4.51-6.02-7.74-11.11-9.14-1.35-.37-2.88-.15-4.04-1.22-1.26-1.16-2.56-2.28-3.84-3.43-1.5-1.34-3.31-2.2-4.97-3.3-.46-.31-.99-.26-1.51-.13l-.02-.02ZM287.26,261.23c-1.24.53-2.96,3.49-2.8,4.81.04.31.15.56.49.56.38,0,.41-.33.46-.59.21-1.33.73-2.5,1.55-3.57.26-.34.44-.76.28-1.22l.06-.02-.05.03h.01ZM231.33,235.81c1.58-2.4,1.27-5.1,1.26-7.76,0-2.67.52-5.37-.64-7.96-.17,2.42-.08,4.85-.19,7.26-.12,2.61.34,5.3-1.01,7.76-.39,1.57-.44,3.15-.21,4.75.74,5.06,6.93,11.49,14.71,9.78.58-.13,1.18-.2,1.75-.36.55-.16.9-.57.84-1.16-.06-.63-.47-1.03-1.11-1.04-.47,0-.95.08-1.42.15-2.19.34-4.46.66-6.44-.44-2.75-1.52-5.05-3.56-6.24-6.64-.55-1.42-.97-2.86-1.3-4.34h0ZM138.14,194.68c0,3.28.02,6.55-.02,9.83,0,.78.21,1.03,1.01,1.02,6.47-.03,12.95-.03,19.42,0,.74,0,1.05-.14,1.05-.98-.03-6.51-.03-13.03,0-19.54,0-.73-.2-.96-.94-.96-6.51.03-13.03.03-19.54,0-.82,0-1,.28-.99,1.04.04,3.2.02,6.39.02,9.59h0ZM369.96,194.81c0-3.2-.03-6.39.02-9.59.01-.86-.16-1.18-1.1-1.17-6.43.04-12.87.04-19.3,0-.84,0-1.08.24-1.07,1.08.03,6.43.03,12.87,0,19.3,0,.8.16,1.11,1.04,1.11,6.47-.04,12.95-.03,19.42,0,.79,0,1.02-.23,1.01-1.02-.04-3.24-.02-6.47-.02-9.71h0ZM466.87,314.35c0-3.28-.02-6.55.02-9.83,0-.77-.19-1.03-1-1.03-6.51.03-13.03.03-19.54,0-.76,0-.94.26-.93.97.02,6.51.02,13.03,0,19.54,0,.71.18.97.93.97,6.51-.03,13.03-.03,19.54,0,.81,0,1.01-.26,1-1.03-.04-3.2-.02-6.39-.02-9.59h0ZM41.46,314.24c0,3.24.02,6.47-.02,9.71,0,.77.19,1.03,1,1.03,6.51-.03,13.03-.03,19.54,0,.76,0,.94-.26.93-.97-.02-6.51-.02-13.03,0-19.54,0-.71-.18-.97-.93-.97-6.51.03-13.03.03-19.54,0-.81,0-1.01.26-1,1.03.04,3.24.02,6.47.02,9.71h0ZM232.14,273.98c-.16,2.24.16,4.6.67,6.94,1.4,6.43,4.64,11.6,10.35,15.06.4.24.88.37,1.34.46.63.12,1.19-.04,1.57-.61.35-.51.17-.99-.1-1.45-.47-.8-.78-1.64-.95-2.56-.62-3.31-.85-6.64-.62-10,.05-.74-.12-1.07-.82-1.42-2.14-1.06-4.36-2.17-5.86-4.01-2.62-3.21-3.42-6.91-1.87-10.93.23-.59.45-1.36-.24-1.73-.8-.42-1.2.31-1.57.88-.11.17-.2.35-.29.52-1.46,2.72-1.77,5.65-1.61,8.84h0ZM284.72,271.18c-9.36,10.19-18.63,20.28-28.1,30.58h2.15c1.37,0,2.08.66,2.14,1.97,0,.06.08.11.17.21.25-.26.49-.51.73-.76,4.94-5.38,9.88-10.76,14.83-16.14,3.46-3.76,6.9-7.54,10.39-11.27.64-.68.63-1.08-.08-1.62-.98-.74-1.73-1.69-2.23-2.97h0ZM253.19,246.68c.85-.03,1.94-.43,2.64-1.55,1-1.59,1.99-3.18,2.94-4.8.5-.84.85-1.75.47-2.74-.4-1.04-.77-2.08-1.35-3.04-1.36-2.25-3.48-3.7-5.36-5.42-1.7-1.56-3.83-1.23-5.33-.33-2.82,1.7-5.29,3.94-6.94,6.95-1.11,2.03-1,3.83.47,5.63.88,1.08,1.72,2.19,2.49,3.37.7,1.07,1.74,1.84,3.1,1.74,2.16-.16,4.31.02,6.87.18h0ZM241.83,301.77c-.3-.38-.45-.57-.6-.75-5.13-6.07-10.26-12.14-15.39-18.21-2.78-3.29-5.57-6.59-8.38-9.86-.23-.27-.44-1.07-1.04-.31-.67.83-1.57,1.37-2.51,1.79-.72.33-.63.63-.18,1.12.8.89,1.56,1.82,2.33,2.73,6.37,7.53,12.74,15.06,19.11,22.59.34.41.6.93,1.3.91,1.71-.04,3.42-.01,5.35-.01h0ZM246.01,280.88c.39.66.71,1.11.94,1.61,1.96,4.33,3.34,8.79,2.97,13.63-.02.31-.16.69.19.87.41.21.51-.26.73-.44,1.26-1,1.91-2.44,2.61-3.8,2.53-4.92,2.48-10.18,1.94-15.5-.03-.29.12-.73-.29-.82-.35-.07-.51.32-.72.55-2.22,2.37-4.7,4.2-8.36,3.9h-.01ZM266.95,217.89c-.61.42-.7.96-.73,1.49-.13,2.87-.29,5.76-.02,8.62.19,1.98-.03,4.03.76,5.91.41.98.53,1.91.28,2.91-.88,3.51-2.32,6.63-5.46,8.81-1.64,1.14-3.25,1.93-5.27,1.92-1.37,0-2.7-.23-4.04-.43-.7-.1-1.33.11-1.47.89-.14.79.37,1.16,1.09,1.3.59.11,1.17.29,1.77.32,2.62.11,5.29.52,7.67-1.09,1.39-.94,2.7-2,3.86-3.22,2.79-2.92,3.56-6.49,2.52-10.22-.69-2.48-.94-4.92-.96-7.43-.04-3.26,0-6.51,0-9.77h0ZM257.65,270.98c-.35,1.29-.76,2.42-1.5,3.36-.64.81-.5,1.45.04,2.24.87,1.27,1.95,2.41,2.27,4.01.35,1.76.08,3.49-.12,5.22-.04.35-.17.81.25.95.37.12.48-.33.66-.58,1.93-2.71,2.51-5.78,2.07-8.99-.34-2.47-1.7-4.47-3.66-6.2h0ZM233.5,201.18c-.05-.42-.1-1.02-.21-1.61-.37-2.01-2.09-3.76-3.74-3.81-2.52-.08-4.59,1.32-5.15,3.46-.06.21-.13.39.14.44.77.14,1.52.52,2.31.09,1.51-.83,2.39-.8,3.23.07.8.83.88,1.85.11,3.16-.32.55-.06.9.16,1.3.25.45.67.34,1.06.26,1.38-.28,2.07-1.35,2.08-3.36h.01ZM267.38,199.85c.95,0,1.79.91,2.65-.17.94-1.17,2.23-1.33,3.25-.49,1,.83,1.11,2.11.14,3.28-.61.74-.26,1.35.06,1.97.35.68.95.36,1.48.22.72-.19,1.1-.66,1.37-1.35.47-1.22.37-2.44.1-3.65-.74-3.33-4.09-4.67-6.96-2.83-1.08.69-1.45,1.85-2.1,3.02h0ZM211.56,255.3v.36c.03.36-.21.88.4.95.51.05.65-.41.77-.78.09-.3.12-.63.13-.94.07-1.52-.42-2.93-1.1-4.24-1.26-2.41-2.77-4.59-5.68-5.27-.61-.14-1.48-.28-1.63.22-.2.65.72.74,1.21.99,3.65,1.77,5.23,4.94,5.9,8.72h0ZM290.15,256.28c.01.06.04.38.13.68.09.32.24.62.63.61.47,0,.4-.4.45-.7.76-4.31,3.03-7.36,7.29-8.76.36-.12.95-.2.89-.64-.07-.48-.66-.48-1.09-.53-.15-.02-.31.05-.47.05-3.69.06-7.81,5.66-7.83,9.27v.02ZM259.21,314.3c0-3.24-.03-6.47.02-9.71.01-.87-.19-1.18-1.12-1.17-6.47.04-12.95.03-19.42,0-.85,0-1.08.26-1.08,1.09.03,6.47.03,12.95,0,19.42,0,.8.18,1.12,1.06,1.11,6.51-.03,13.03-.03,19.54,0,.79,0,1.02-.25,1.02-1.03-.04-3.24-.02-6.47-.02-9.71ZM319.2,275.04c-.73.32-.8.8-.87,1.26-.1.63-.18,1.26-.27,1.89-.23,1.51-.99,2.49-2.55,2.94-1.41.4-2.79.61-4.24.51-.43-.03-.87-.15-1.29.06-.26.13-.56.28-.55.57.01.41.42.29.66.3,1.67.07,3.34.17,5.01.14,1.62-.03,3.24-1.46,3.51-3.07.25-1.48.39-2.98.59-4.61h0ZM182.03,271.1c-.08,1.87.04,3.61.38,5.32.17.89.62,1.91,1.5,2.17,2.28.67,4.65.91,7.1.9-.18-.85-.7-1.02-1.35-1.01-.72,0-1.43-.05-2.14-.19-3.96-.75-4.73-1.63-4.81-5.62,0-.55.06-1.12-.68-1.57h0ZM297.5,282.55c.15-1.09.63-1.75.51-2.53-.21-1.34-.38-2.66-.09-4.02.1-.48-.09-.98-.66-1.12-.53-.13-.92.08-1.17.58-.19.39-.39.77-.47,1.21-.42,2.19.69,3.87,1.88,5.88ZM202.88,280.54c.94-.92,1.53-1.96,2.02-3.04.47-1.04.55-2.16.16-3.27-.2-.59-.46-1.17-1.23-1.05-.78.13-.81.78-.78,1.4.04.68.11,1.37-.1,2.02-.42,1.27-.58,2.54-.08,3.94h0ZM315.22,277.18c-.22-1.11-.8-2.01-1.36-2.9-.73-1.15-1.75-1.92-3.13-2.17-.61-.11-1.16-.04-1.38.6-.23.66.2,1.05.74,1.31.61.29,1.23.57,1.7,1.07.93.99,1.91,1.9,3.42,2.09h0ZM185.64,273.65c1.42-.16,2.46-.67,3.36-1.5.56-.52,1.22-.86,1.95-1.1.62-.2,1.27-.49,1.07-1.31s-.91-.77-1.56-.68c-.35.05-.69.15-1.02.28-2,.75-2.82,2.52-3.8,4.32h0ZM181.22,256.85c1.27.13,2.26-.29,3.17-.94.59-.42,1.23-.74,1.93-.91.68-.16,1.46-.31,1.31-1.21-.15-.89-.98-.78-1.65-.76-.69.02-1.32.26-1.9.63-1.23.79-2.05,1.94-2.86,3.19ZM296.63,285.32c1.05.1,2.01.28,2.85-.41.53-.43,1.07-.83,1.6-1.26.25-.2.82-.24.53-.75-.28-.49-.8-.56-1.25-.26-.39.26-.69.66-1.06.96-1.57,1.32-3.39,1.18-4.66-.35-.35-.42-.84-.6-1.27-.88-.19-.12-.41-.11-.54.06-.08.1-.09.3-.05.43.34,1.31,1.75,2.42,3.1,2.44h.74v.02ZM321.06,265.74c1.32-.11,2.43-.52,3.44-1.16,1.03-.65,1.75-1.62,1.6-2.89-.15-1.26-.44-2.51-.92-3.71-.09-.22-.14-.53-.44-.44-.21.06-.41.25-.54.43-.24.33-.15.71.06,1.01.85,1.24.48,2.54.16,3.81-.27,1.03-.89,1.76-2.04,1.92-.54.08-1.13.17-1.32,1.03h0ZM321.41,261.03c-.41-1.07-1-1.91-1.66-2.71-.75-.92-1.69-1.56-2.92-1.66-.61-.05-1.28-.11-1.47.65s.41,1.06,1,1.25c.61.2,1.2.46,1.67.89.93.84,1.95,1.47,3.38,1.58h0ZM204.48,283.66c1.25.37,1.69-.43,2.16-1.12.3-.44,1.24-.86.71-1.37-.51-.49-1.2.24-1.75.59-.13.08-.22.23-.31.36-.39.53-.91.68-1.56.7-1.36.03-2.37-.56-3.21-1.57-.23-.27-.45-.58-.74-.76-.36-.22-.79-.18-1.09.17-.4.48.18.56.37.81,1.42,1.85,3.32,2.49,5.41,2.19h0ZM181.05,261.58c.03-.71-.44-.93-.89-1.03-1.75-.4-2.15-1.69-2.24-3.23-.06-1.07.06-2.05.77-2.92.37-.45.2-.98-.26-1.24-.59-.32-.62.34-.74.64-.39.91-.85,1.83-1.04,2.79-.22,1.11-.4,2.37.71,3.19,1.09.8,2.19,1.61,3.7,1.8h-.01ZM308.21,245.29c-.06-.07-.13-.17-.22-.25-1.21-1.11-5.02-.47-5.89.98-.21.35-.26.67-.01.99.3.39.73.41,1.06.16,1.35-1.04,2.89-1.43,4.56-1.49.23,0,.5-.02.51-.39h0ZM197.75,242.06c-.13.02-.6.08-1.07.17-.3.06-.7.1-.67.51.03.36.43.29.68.33,1.44.2,2.76.67,3.84,1.66.42.38.88.67,1.34.22.51-.51.19-1.06-.23-1.45-.99-.92-2.16-1.46-3.89-1.44h0ZM215.12,260.6c-.08,1.09.61,1.79.95,2.62.35.86.39,1.78.53,2.68.03.22.21.33.44.31.22-.03.32-.18.4-.38.43-1.19-1.02-4.56-2.32-5.23h0ZM271.11,204.53c-.55-.36-1.06-.72-1.59-1.04-.29-.18-.61-.25-.81.13-.2.37-.31.76.11,1.05.74.49,1.5.68,2.29-.14h0ZM227.93,204.28c-.52-.34-1-.67-1.49-.98-.38-.24-.76-.31-.98.19-.17.38-.17.77.28,1.02.74.41,1.46.57,2.18-.22h.01Z"/>
  <path class="cls-20" d="M201.66,186.4c1.66-1.08,3.39-2.09,4.98-3.27,2.19-1.63,4.69-2.67,7.06-3.96.32-.17.63-.35.93-.55,1.12-.74,1.57-2.27.96-3.24-.57-.9-2.11-1.08-3.24-.28-.87.62-1.66,1.37-2.47,2.09-.43.39-.89.79-1.47.61-.52-.16-.32-.77-.38-1.17-.44-2.63-1.32-5.19-1.17-7.91.08-1.44.36-1.87,1.82-1.96,1.43-.09,2.88-.07,4.31-.02.71.03,1.41.3,1.99.74,1.18.89,2.33,1.81,3.49,2.73.68.53,1.14,1.24,1.36,2.06.45,1.65,1.59,2.5,3.21,2.54,3.06.09,6.09.19,9.13-.75,3.43-1.06,6.59-.08,9.28,2.38,1.32,1.22,2.69,2.39,3.92,3.7.33.35.7.71.74,1.2.16,2.39.39,4.78-.11,7.15-.34,1.62-1.41,2.56-3.03,2.82-1.27.2-2.55.25-3.82.1-1.3-.16-2.5-.71-2.75-2.11-.74-4.1-3.99-4.54-7.18-5.06-2.21-.36-4.45-.24-6.68-.39-1.93-.12-3.64.99-4.87,2.48-3.44,4.16-6.31,8.66-7.44,14.04-.74,3.53-.43,7.05.1,10.59.88,5.89,2.97,11.29,6.32,16.2.13.19.19.42.32.71-2.51.02-4.64-.89-6.79-1.84-3.36-1.49-6.84-2.08-10.44-.84-.18.06-.35.17-.52.25-2.03.57-4.29.51-5.91,2.2-.19.2-.49.49-.83.26-.3-.21-.19-.59-.18-.9.03-.62.31-1.15.67-1.63,1.55-2.1,3.21-4.08,5.63-5.25.11-.05.21-.13.28-.21.04-.05.03-.14.08-.37-2.08.43-3.52,1.8-5.2,2.94.6-3.67,1.41-7.26,2.61-10.77,1.21-3.56,3.07-6.73,5.45-9.65-3.06,1.11-6.72,1.21-8.07,5.13-.51-1.98,0-3.77.33-5.57.36-1.9,1.22-3.58,2.28-5.17.03,0,.06-.03.09-.05,0,0,0-.04,0-.06-.02.04-.05.08-.07.13-1.6.65-2.71,1.97-4.08,2.94-.31.22-.56.54-.87.84-.28-.61.06-1.05.22-1.51,1.35-4.03,4.09-7.05,7.17-9.82.95-.85,1.9-1.7,2.85-2.55v.03Z"/>
  <path class="cls-20" d="M301.6,225.13c-4.41-1.1-8.79-1.25-13.03.68-2.14.98-4.29,1.86-6.86,1.84.63-1.01,1.22-1.89,1.74-2.81,4.1-7.27,6.11-15.04,5.28-23.39-.38-3.83-2.06-7.28-4.12-10.5-.9-1.41-1.94-2.74-2.91-4.11-.8-1.14-1.86-1.97-3.1-2.58-1.17-.59-2.37-.6-3.69-.53-3.15.15-6.27.24-9.32,1.19-1.12.35-1.94.81-2.34,1.95-.26.75-.63,1.46-.88,2.21-.45,1.36-1.48,1.94-2.78,2.11-1.23.16-2.48.12-3.71-.07-2.1-.33-3.27-1.68-3.38-4.01-.08-1.79,0-3.59.03-5.39,0-.67.27-1.22.74-1.71,1.72-1.79,3.56-3.42,5.55-4.92,2.52-1.89,5.3-1.98,8.08-1.14,3.08.93,6.16.77,9.26.57,1.4-.09,2.31-.99,2.7-2.35.26-.91.74-1.67,1.48-2.25,1.13-.89,2.24-1.79,3.4-2.64.65-.48,1.41-.75,2.23-.76,1.28-.02,2.56-.04,3.84,0,1.67.07,1.99.48,2.06,2.09.13,2.92-.87,5.67-1.28,8.5-.14.98-.88.46-1.26.2-.66-.45-1.21-1.04-1.82-1.56-.43-.36-.85-.74-1.33-1.02-1.1-.64-2.51-.42-3.04.41-.58.92-.18,2.45.87,3.16.63.42,1.27.83,1.96,1.13,3.9,1.7,7.3,4.2,10.76,6.61.09.06.22.07.34.11,1.72,1.66,3.59,3.14,5.25,4.87,2.16,2.24,3.84,4.76,4.84,7.71.13.39.4.77.16,1.26-.99-.94-1.95-1.89-2.94-2.79-.49-.44-.99-.94-1.77-.73.08-.08.07-.15-.04-.17-.03,0-.07.02-.11.03.05.05.1.09.15.14,1.47,2.29,2.16,4.84,2.54,7.5.13.95.14,1.89-.08,2.93-.92-1.38-1.69-2.9-3.29-3.58-1.53-.65-3.21-.87-4.83-1.51,2.29,2.94,4.17,6.05,5.39,9.56,1.22,3.5,1.91,7.12,2.91,11.03-1.9-1.16-3.22-2.55-5.15-2.94-.02.48.28.6.54.74,1.47.75,2.7,1.84,3.96,2.89,1.13.94,1.63,2.24,1.82,3.66.04.34.16.79-.25.97-.31.14-.59-.16-.83-.34-1.18-.89-2.28-1.89-3.77-2.25h.03Z"/>
  <path class="cls-1" d="M346.73,203.75c.01.2.02.4.04.6.07.94-.41,2.19.2,2.75.52.47,1.74.17,2.72.22-.09.46-.46.71-.73,1.01-11,11.98-22.03,23.93-33,35.94-.98,1.08-1.85,1.36-3.2.91-2.6-.88-5.26-1.6-7.87-2.48-.97-.33-1.82-.99-2.79-1.35-1.26-.47-2.56-.82-3.87-1.15-1.07-.27-1.99-.79-2.87-1.41-.66-.47-1.02-.41-1.4.41-1.47,3.21-3.25,6.3-5.93,8.63-2.26,1.97-4.31,4.31-7.31,5.28-1.8.58-3.66.75-5.53.54-2.68-.31-4.48-2.64-4.77-5.3-.44-3.91,1.01-6.86,3.79-9.43,3.22-2.98,6.73-5.39,11.18-6.04,1.28-.19,2.09-1.05,2.84-1.85,1.79-1.9,4.1-2.96,6.25-4.3.58-.36,1.23-.29,1.87-.3.07,1.34.94,2.05,2.1,2.38,2.74.79,4.83,2.6,7.01,4.28,1.04.81,2,1.71,3.06,2.51,1.51,1.14,2.83,2.45,3.98,3.94.44.57.76.61,1.29.03,9.12-9.96,18.25-19.91,27.39-29.85,1.84-2,3.7-3.97,5.55-5.96h0Z"/>
  <path class="cls-1" d="M202.3,226.33c.52-.12,1.05-.17,1.51.13,1.66,1.1,3.47,1.96,4.97,3.3,1.28,1.15,2.58,2.27,3.84,3.43,1.15,1.07,2.69.85,4.04,1.22,5.09,1.4,8.75,4.63,11.11,9.14,1.17,2.25.96,5.03-.14,7.41-1.36,2.94-4.17,3.2-6.95,3.06-1.63-.08-3.23-.59-4.69-1.34-1.53-.78-2.83-1.78-3.6-3.46-1.03-2.29-2.74-4.09-4.74-5.61-1.24-.94-1.99-2.3-2.64-3.63-.51-1.04-1.14-1.03-1.89-.69-.99.45-2.22.6-2.99,1.08-2.2,1.38-4.49.87-6.77,1.04-1.95.14-3.63,1.14-5.37,1.91-.81.36-1.32.28-1.86-.36-9.71-11.51-19.43-23.01-29.14-34.51-.25-.29-.6-.53-.68-1.2h5c.62.02.99.41,1.37.85,7.96,9.44,15.93,18.87,23.9,28.3,1.11,1.32,1.06,1.23,2.52.35,4.34-2.64,8.2-5.96,12.5-8.65.87-.55.33-1.26.71-1.77h0Z"/>
  <path class="cls-18" d="M447.66,301.73c-.96.01-1.92.09-2.87.02-.86-.06-1.28.14-1.12,1.09.06.38.01.77.01,1.51-26.48-32.46-52.74-64.67-79.14-97.04h6.23c5.72,7.04,11.43,14.08,17.16,21.11,19.79,24.28,39.6,48.55,59.39,72.82.12.15.23.33.34.49h0Z"/>
  <path class="cls-4" d="M136.63,207.35c1.83-.02,3.67-.1,5.55.11.02.44-.31.64-.51.9-21.19,26.53-42.38,53.06-63.58,79.59-3.66,4.59-7.32,9.18-10.98,13.78-.37.47-.73.93-1.34,1.15-.63.22-1.22.45-1.12-.61.05-.58-.34-.5-.7-.51-1.04-.01-2.08-.03-3.11-.05,4.04-5,7.96-10.1,12.16-14.97,5.91-6.83,11.36-14.02,17.01-21.06,13.01-16.2,25.95-32.45,38.92-48.68,2.57-3.21,5.12-6.44,7.69-9.66h0Z"/>
  <path class="cls-8" d="M54.15,358.59c2.81-2.43,5.28-2.08,6.78.43.71-.69,1.41-1.41,2.33-1.8,2.39-1.02,4.86.42,5,3.05.16,2.91.07,5.83.11,8.74.01,1.04-.76.53-1.2.62-.53.11-.88.01-.86-.71.05-2.35.03-4.71,0-7.07,0-1.11.09-2.31-1.19-2.88-1-.45-2.57.13-3.56,1.16-.33.34-.3.7-.29,1.1,0,2.48-.04,4.95.03,7.43.03.91-.33,1-1.1,1.02-.85.02-1.07-.23-1.05-1.07.05-2.47.03-4.95-.02-7.42-.05-2.16-1.51-2.97-3.4-1.97-1.09.58-1.73,1.29-1.65,2.7.15,2.31,0,4.63.06,6.94.03.94-.49.78-1.04.79-.58.01-1.05.08-1.04-.81.05-3.59.05-7.19,0-10.78,0-.78.25-.98.96-.89.55.06,1.29-.21,1.1.83-.03.15,0,.31.03.61v-.02Z"/>
  <path class="cls-14" d="M298.85,371.87c1.19.29,2.36.66,3.61.66,2.51-.02,3.5-.97,3.52-3.45v-1.07c-.93.55-1.68,1.08-2.66,1.27-2.26.43-4.34-.48-5.16-2.58-.85-2.19-.91-4.43.08-6.62,1.27-2.78,4.05-3.85,6.85-2.67.39.16.67.51,1.11-.11.27-.37,1.09-.24,1.59-.05.43.16.19.71.19,1.08,0,3.63.04,7.27-.04,10.9-.11,4.4-3.16,5.46-6.68,5.17-.19-.02-.38-.1-.57-.13-2.37-.34-1.95-.05-1.85-2.39h.01ZM305.98,363.04v-2.87c0-.27.05-.54-.22-.76-1.56-1.29-4.75-.58-5.57,1.33-.74,1.72-.7,3.51-.02,5.24.51,1.3,1.78,1.79,3.42,1.46,1.84-.37,2.39-.97,2.39-2.6v-1.8h0Z"/>
  <path class="cls-17" d="M23.88,361.21c0-2.52.05-5.03-.02-7.55-.03-1.03.58-.8,1.14-.81.58-.01,1.18-.18,1.12.84-.1,1.55,0,3.11-.04,4.67-.02.67.07,1.01.88.98,2.04-.06,4.07-.05,6.11,0,.71.02.87-.24.85-.89-.04-1.6.04-3.2-.04-4.79-.05-.91.46-.83,1.03-.81s1.16-.2,1.15.83c-.05,5.03-.05,10.06,0,15.1,0,.98-.5.87-1.11.88-.64.01-1.12.06-1.08-.89.08-2.19,0-4.39.04-6.59.02-.73-.17-.96-.92-.94-2,.05-4,.05-5.99,0-.73-.02-.95.18-.94.93.05,2.2-.04,4.4.05,6.59.04,1.07-.57.88-1.19.9-.64.02-1.1.05-1.07-.89.08-2.51.03-5.03.03-7.55h0Z"/>
  <path class="cls-8" d="M462.2,361.53c.05,1.4-.08,2.98-.52,4.53-.69,2.41-2.29,3.75-4.56,3.83-2.44.08-4.1-1.06-4.85-3.57-1.01-3.4-1.01-6.85.03-10.25.71-2.33,2.29-3.43,4.59-3.45,2.28-.01,3.76,1.1,4.61,3.41.63,1.72.71,3.5.69,5.51h.01ZM459.99,361.28c0-1.59.05-3.19-.48-4.73-.51-1.49-1.26-2.05-2.71-2.02-1.27.03-2.2.71-2.52,2.12-.68,2.95-.75,5.93-.06,8.89.43,1.84,1.28,2.48,2.87,2.43,1.39-.04,2.27-.92,2.63-2.63.28-1.34.29-2.69.27-4.05h0Z"/>
  <path class="cls-17" d="M113.4,356.48c-1.73-1.42-3.44-2.13-5.46-1.94-1.85.17-2.94,1.37-2.76,3.05.14,1.27,1,1.85,2.09,2.16,1.1.32,2.24.53,3.34.85,2.42.71,3.54,2.16,3.47,4.37-.07,2.23-1.71,4.17-3.92,4.68-2.38.54-4.64.1-6.85-.81-.36-.15-.58-.34-.55-.79.04-.67.01-1.35.01-2.16.94.55,1.7,1.18,2.62,1.54,1.45.56,2.93.77,4.43.29,1.28-.41,1.99-1.32,2-2.52.02-1.26-.58-2.08-1.95-2.51-1.17-.37-2.37-.62-3.55-.96-2.33-.68-3.61-2.35-3.49-4.52.12-2.12,1.74-3.89,3.93-4.39,2.02-.46,3.93-.08,5.84.54.54.17.89.44.81,1.1-.06.59-.01,1.19,0,2.02Z"/>
  <path class="cls-13" d="M203.79,361.18c0-2.51.02-5.03,0-7.54,0-.61.14-.84.79-.81,1.78.11,3.57-.09,5.36.18,2.67.4,4.39,2.18,4.44,4.74.05,2.75-1.77,4.98-4.4,5.44-.94.16-1.89.29-2.84.19-.86-.09-1.21.13-1.14,1.08.09,1.35-.06,2.72.05,4.07.08,1.04-.39,1.07-1.21,1.14-1.07.09-1.03-.45-1.02-1.19.03-2.43,0-4.87,0-7.3h-.02ZM205.99,358.12v2.63c0,.35-.07.75.5.73,1.15-.05,2.31.14,3.43-.25,1.63-.56,2.5-2.24,2.08-4.05-.46-1.99-2.14-2.87-5.37-2.36-1.48.23-.28,1.73-.63,2.58-.08.21,0,.47,0,.71h0Z"/>
  <path class="cls-5" d="M485.58,357.44c0,1.16.05,2.32-.02,3.47-.05.82.17,1.2,1.03,1.05.74-.13,1.04.11,1.01.94-.02.74-.16,1.15-.97.98-.97-.2-1.12.3-1.07,1.13.06,1.15-.02,2.32.03,3.47.03.79-.04,1.22-1.05,1.2-.91-.02-1.15-.26-1.09-1.14.08-1.23-.04-2.48.04-3.71.05-.83-.26-.99-1.01-.97-1.88.05-3.75,0-5.63.03-.6.01-.8-.13-.83-.78-.05-1.13.2-2.01,1.02-2.89,2.05-2.18,4.01-4.45,5.91-6.76.69-.83,1.48-.6,2.27-.6.49,0,.34.45.35.74.01,1.28,0,2.56,0,3.83h0ZM483.48,355.38c-2.01,2.31-3.79,4.37-5.72,6.59,1.86,0,3.48-.02,5.11.01.6.01.62-.3.61-.75-.01-1.83,0-3.66,0-5.85h0Z"/>
  <path class="cls-17" d="M330.21,365.79c0,.83-.01,1.53,0,2.23,0,.28-.13.44-.35.56-3.47,1.89-7.85,1.81-10.41-1.11-2.8-3.18-2.89-11.5,1.95-13.96,2.88-1.47,5.67-1.01,8.42.32.76.37.27,1.15.38,1.74.06.31,0,.64,0,1.12-.51-.36-.92-.68-1.35-.97-1.87-1.23-3.86-1.7-5.96-.71-2.07.98-2.74,2.87-3,4.97-.14,1.12-.14,2.25.08,3.34.85,4.27,4.86,5.97,8.59,3.66.53-.33,1.01-.73,1.64-1.2h0Z"/>
  <path class="cls-8" d="M429.98,366.52c.08,2.46.07,2.45-2.09,3.05-1.54.43-3.06.42-4.58-.06-3.07-.97-4.53-4.07-3.7-7.81.78-3.55,3.56-5.34,7.08-4.56,2.18.48,3.41,2.27,3.58,5.03.07,1.11-.11,1.61-1.42,1.52-2.15-.14-4.31-.02-6.47-.05-.67-.01-.88.13-.8.86.26,2.61,2.63,4.08,5.5,3.36,1-.25,1.93-.69,2.9-1.33h0ZM424.87,361.96c.88,0,1.75-.02,2.63,0,.53.02.77-.05.66-.72-.27-1.7-1.16-2.6-2.81-2.65-1.96-.05-3.44,1-3.74,2.61-.1.55,0,.79.63.76.87-.05,1.75-.01,2.63-.01h0Z"/>
  <path class="cls-8" d="M394.44,366.58c.16,2.35.16,2.33-2,2.97-1.5.44-2.99.45-4.46.03-2.04-.58-3.36-1.92-3.82-4.02-.45-2.05-.36-4.04.71-5.9,1.33-2.33,4.18-3.31,6.83-2.38,2.62.92,3.13,3.63,3.06,5.91-.02.7-.53.46-.86.46-2.32.02-4.63.04-6.95,0-.73-.01-.95.12-.86.92.3,2.59,2.67,4.02,5.55,3.28,1-.26,1.9-.74,2.82-1.24l-.02-.03ZM389.28,361.96c.96,0,1.91-.01,2.87,0,.48.01.58-.14.53-.63-.19-1.68-1.14-2.67-2.73-2.73-2.01-.08-3.55,1-3.83,2.64-.11.61.09.76.67.72.83-.04,1.67-.01,2.51-.01h-.02Z"/>
  <path class="cls-8" d="M374.08,366.51c.08,2.46.08,2.45-2.09,3.06-1.54.43-3.06.42-4.58-.06-3.07-.96-4.54-4.07-3.71-7.81.78-3.55,3.56-5.35,7.07-4.57,2.19.48,3.42,2.27,3.59,5.02.07,1.1-.09,1.62-1.41,1.53-2.15-.14-4.31-.02-6.47-.05-.66-.01-.88.11-.81.85.26,2.61,2.63,4.09,5.5,3.37,1-.25,1.93-.68,2.91-1.34h0ZM368.92,361.96c.88,0,1.75-.02,2.63,0,.58.02.85-.04.72-.77-.3-1.73-1.21-2.58-2.97-2.59-1.86-.02-3.33,1.09-3.57,2.67-.08.49-.01.73.57.7.87-.04,1.75-.01,2.63-.01h-.01Z"/>
  <path class="cls-8" d="M257.47,366.58c.02,2.51.65,2.08-2.01,2.96-1.48.49-2.99.46-4.46.03-2.04-.58-3.36-1.92-3.82-4.02-.45-2.05-.36-4.04.71-5.9,1.33-2.33,4.18-3.31,6.83-2.38,2.62.92,3.13,3.62,3.06,5.91-.02.7-.53.46-.86.46-2.32.02-4.63.04-6.95,0-.73-.01-.95.12-.86.92.3,2.59,2.67,4.02,5.55,3.28,1-.26,1.9-.74,2.82-1.25h-.01ZM252.41,361.96c.88,0,1.75-.02,2.63,0,.55.02.75-.08.65-.73-.27-1.7-1.17-2.59-2.82-2.64-1.95-.05-3.44,1.01-3.73,2.62-.1.57.03.78.64.75.87-.05,1.75-.01,2.63-.01h0Z"/>
  <path class="cls-8" d="M194.14,366.53c.15,2.41.14,2.39-2.01,3.02-1.5.44-2.99.44-4.46.02-2.04-.59-3.36-1.92-3.82-4.03-.45-2.05-.35-4.04.71-5.9,1.36-2.37,4.27-3.31,6.94-2.33,2.52.93,3.02,3.69,2.94,5.87-.02.7-.54.45-.87.45-2.32.02-4.63.04-6.95,0-.74-.01-.95.14-.85.92.3,2.54,2.62,4,5.44,3.31,1-.25,1.95-.66,2.93-1.33h0ZM189.1,361.96c.92,0,1.83-.02,2.75,0,.48.01.58-.14.52-.63-.19-1.68-1.14-2.67-2.74-2.73-2.01-.08-3.55,1-3.83,2.65-.11.61.1.75.67.72.87-.04,1.75-.01,2.63-.01h0Z"/>
  <path class="cls-8" d="M158.63,366.58c.05,2.52.62,2.09-1.99,2.96-1.48.49-2.99.46-4.46.04-2.04-.58-3.39-1.91-3.82-4.02-.53-2.57-.36-5.02,1.57-7.03,1.62-1.68,4.44-2.1,6.5-1.04,1.72.88,2.84,3.5,2.52,5.69-.1.68-.53.46-.87.46-2.28.02-4.55.07-6.83-.02-1.01-.04-1.09.33-.96,1.16.38,2.43,2.75,3.76,5.51,3.05,1-.26,1.9-.74,2.82-1.25h.01ZM150.3,361.96h5.96c.5,0,.67-.09.6-.67-.25-1.89-1.28-2.75-3.37-2.69-1.86.06-3.11,1.34-3.19,3.36h0Z"/>
  <path class="cls-8" d="M126.03,366.52c.11,2.48.11,2.47-2.15,3.08-1.42.38-2.84.38-4.24,0-1.91-.51-3.24-1.71-3.81-3.61-.51-1.68-.49-3.39.03-5.07.95-3.08,3.83-4.41,6.39-3.9,2.9.58,4.39,2.89,4.09,6.05-.06.63-.38.57-.78.57-2.36,0-4.71.03-7.07-.02-.77-.02-.93.19-.84.94.3,2.54,2.64,3.99,5.45,3.29,1-.25,1.94-.67,2.93-1.33h0ZM120.93,361.96c.88,0,1.75-.02,2.63,0,.52.01.78-.03.67-.71-.27-1.7-1.16-2.61-2.8-2.65-1.96-.06-3.44.99-3.74,2.61-.1.54-.03.8.62.76.87-.05,1.75-.01,2.63-.01h0Z"/>
  <path class="cls-14" d="M71.68,359.54c-.03-.17-.06-.25-.06-.32-.05-1.87-.05-1.85,1.78-2.09,1.3-.17,2.58-.28,3.9-.03,2.1.4,3.21,1.6,3.23,3.77.02,2.6-.02,5.2.02,7.79.01.77-.19,1-.98,1s-1.2-.17-1.05-1.03c.01-.08-.01-.16-.03-.37-1,.53-1.83,1.24-2.94,1.48-2.15.47-4.08-.51-4.75-2.54-.68-2.09.23-3.95,2.3-4.86,1.5-.66,3.1-.62,4.66-.82.88-.12.84-.48.69-1.08-.28-1.09-1.07-1.51-2.12-1.59-1.57-.13-3.09.16-4.65.69h0ZM78.53,364.91v-1.2c0-.31-.04-.59-.43-.55-1.53.15-3.12.07-4.46.99-1.36.93-1.18,2.94.28,3.6,2.06.93,4.61-.64,4.6-2.84h.01Z"/>
  <path class="cls-17" d="M441.23,367.72c2.65,0,5,.04,7.36-.02.82-.02.89.31.88.97-.02.62,0,1.02-.85,1-2.67-.06-5.35,0-8.03-.04-.47,0-1.28.31-1.36-.26-.11-.79-.45-1.74.35-2.47,1.53-1.4,3.01-2.86,4.36-4.44.98-1.15,1.99-2.29,2.4-3.81.79-2.92-1.01-4.74-3.95-4-.96.24-1.83.71-2.71,1.18-.35-2.26-.35-2.23,1.71-2.83,1.48-.43,2.96-.57,4.45-.07,2.89.96,3.86,4.55,2.05,7.62-1.09,1.84-2.62,3.31-4.13,4.79-.76.75-1.55,1.47-2.51,2.38h-.02Z"/>
  <path class="cls-17" d="M466.42,367.72c2.66,0,5.01.04,7.37-.02.84-.02.86.35.86.98s-.02,1-.86.98c-2.67-.06-5.35,0-8.03-.04-.47,0-1.27.32-1.35-.27-.11-.79-.43-1.74.37-2.46,1.53-1.4,3.01-2.86,4.36-4.44.98-1.15,1.99-2.29,2.39-3.81.78-2.92-1.02-4.73-3.97-3.99-.96.24-1.82.73-2.71,1.18-.32-2.26-.31-2.24,1.73-2.83,1.48-.43,2.96-.56,4.44-.06,2.89.97,3.86,4.55,2.03,7.63-1.09,1.84-2.63,3.31-4.13,4.79-.76.74-1.54,1.46-2.5,2.37h0Z"/>
  <path class="cls-17" d="M342.23,363.42c.02,2.59-.61,4.89-3.24,5.98-3.34,1.39-7.31-.14-7.81-4.81-.11-1.06-.07-2.13.14-3.21.6-3.04,3.03-4.63,5.87-4.44,2.87.2,4.86,2.4,5.03,5.4.02.36,0,.72,0,1.08h0ZM333.26,363.37c.03.46.03,1.02.12,1.57.29,1.84,1.48,2.97,3.13,3.01,1.89.05,3.08-.85,3.47-2.73.29-1.41.3-2.85-.17-4.24-.46-1.37-1.44-2.1-2.82-2.15-1.66-.06-2.73.59-3.33,1.98-.34.79-.31,1.63-.39,2.55h0Z"/>
  <path class="cls-17" d="M234.75,363.45c.05,3.04-1.11,5.13-3.25,5.98-3.78,1.49-7.35-.67-7.78-4.75-.12-1.1-.08-2.21.15-3.33.57-2.84,2.83-4.56,5.78-4.41,2.82.14,4.86,2.27,5.1,5.2.04.44,0,.88,0,1.32h0ZM225.78,363.34c.04.52.04,1.08.13,1.63.29,1.79,1.46,2.92,3.03,2.99,1.92.08,3.1-.77,3.53-2.64.32-1.41.33-2.84-.12-4.23-.49-1.5-1.46-2.21-2.99-2.24-1.63-.03-2.65.66-3.23,2.11-.3.76-.25,1.56-.35,2.39h0Z"/>
  <path class="cls-8" d="M47.16,368.17c-1.21.65-1.97,1.34-3.02,1.58-2.27.51-4.22-.61-4.69-2.87-.48-2.33-.12-4.7-.22-7.04-.02-.48.07-.97-.02-1.43-.21-1.14.34-1.3,1.31-1.26.7.03.86.24.85.9-.04,2.35-.03,4.71,0,7.07.02,1.73.47,2.55,1.48,2.81,1.15.3,3.57-.58,4.06-1.52.15-.29.13-.7.13-1.05,0-2.44.06-4.87-.02-7.3-.03-.98.49-.85,1.1-.88.65-.03.99.03.98.86-.05,3.43,0,6.87-.05,10.3,0,.48.51,1.35-.7,1.35-.9,0-1.68.04-1.2-1.49v-.03Z"/>
  <path class="cls-13" d="M85.48,358.59c1.02-.56,1.7-1.19,2.6-1.44,2.84-.79,5.08.77,5.16,3.71.07,2.67-.02,5.35.05,8.03.02.96-.56.73-1.08.76-.55.03-.97.06-.96-.76.05-2.28.04-4.55,0-6.83-.02-1.19.02-2.48-1.33-3.08-1.03-.46-3.15.2-4.08,1.14-.34.35-.26.73-.26,1.11,0,2.52-.04,5.03.02,7.55.02.8-.28.94-.96.88-.58-.05-1.15.16-1.13-.85.07-3.47.02-6.95.03-10.43,0-.58-.26-1.26.85-1.24.97.02,1.43.22,1.11,1.47l-.02-.02Z"/>
  <path class="cls-13" d="M398.79,358.58c1.08-.6,1.83-1.25,2.83-1.49,2.55-.61,4.75.83,4.87,3.43.12,2.83.03,5.67.06,8.51.01.95-.68.54-1.1.59-.46.06-.94.15-.92-.65.05-2.2.03-4.39,0-6.59,0-.63-.1-1.27-.2-1.9-.18-1.11-.87-1.61-2-1.65-1.25-.05-2.2.56-3.16,1.23-.45.32-.34.77-.34,1.19,0,2.52-.04,5.03.02,7.55.02.85-.36.88-.99.85-.62-.02-1.12.09-1.1-.88.07-3.43.02-6.87.04-10.31,0-.59-.34-1.36.88-1.34,1.01.02,1.36.31,1.1,1.46h.01Z"/>
  <path class="cls-13" d="M346.5,358.58c1.08-.61,1.83-1.26,2.84-1.49,2.5-.59,4.71.79,4.85,3.32.15,2.87.05,5.75.08,8.63.01.95-.68.54-1.1.59-.46.06-.94.14-.92-.66.05-2.2.03-4.39,0-6.59,0-.63-.1-1.27-.2-1.9-.19-1.11-.88-1.6-2-1.65-1.25-.05-2.2.56-3.16,1.23-.4.28-.34.68-.34,1.07,0,2.56-.04,5.11.02,7.67.02.85-.37.87-1,.85-.62-.02-1.11.08-1.09-.89.07-3.43.02-6.87.03-10.31,0-.6-.33-1.35.88-1.33,1.02.02,1.35.32,1.1,1.46h.01Z"/>
  <path class="cls-13" d="M287.47,358.6c1.08-.61,1.83-1.27,2.83-1.51,2.55-.61,4.76.82,4.88,3.42.13,2.83.03,5.67.07,8.51.01.95-.66.57-1.08.61-.44.04-.96.18-.94-.64.05-2.08.02-4.15.01-6.23,0-.6,0-1.2-.1-1.79-.3-1.87-1.45-2.56-3.28-2.01-1.85.55-2.33,1.2-2.33,3.12,0,2.24-.04,4.48.02,6.71.02.82-.32.91-.98.87-.59-.04-1.13.13-1.11-.87.07-3.43.02-6.87.04-10.31,0-.58-.36-1.37.86-1.35,1,.01,1.4.27,1.1,1.47h0Z"/>
  <path class="cls-13" d="M162.99,358.66c1.54-1.16,2.9-2,4.61-1.66,1.91.37,3.05,1.68,3.1,3.68.07,2.75,0,5.51.06,8.27.02.89-.54.69-1.02.69s-1.03.2-1.01-.69c.05-2.28.03-4.55,0-6.83-.02-1.19.04-2.48-1.28-3.12-1.01-.49-3.09.12-4.1,1.08-.35.33-.31.7-.31,1.09,0,2.52-.04,5.03.02,7.55.02.85-.3.97-1.02.95-.66-.02-1.08,0-1.06-.92.06-3.39,0-6.79.05-10.19,0-.53-.5-1.38.78-1.42,1.04-.03,1.45.26,1.2,1.53h-.02Z"/>
  <path class="cls-13" d="M130.36,358.58c1.08-.6,1.83-1.25,2.83-1.49,2.55-.61,4.75.83,4.87,3.43.12,2.83.03,5.67.06,8.51,0,.95-.68.54-1.1.59-.46.06-.94.15-.92-.65.05-2.2.03-4.39,0-6.59,0-.63-.1-1.27-.2-1.9-.18-1.11-.87-1.61-2-1.65-1.25-.05-2.2.56-3.16,1.23-.45.32-.34.77-.34,1.19,0,2.52-.04,5.03.02,7.55.02.85-.36.88-.99.85-.62-.02-1.12.09-1.1-.88.07-3.43.02-6.87.04-10.31,0-.59-.34-1.36.88-1.34,1.01.02,1.36.31,1.1,1.46h.01Z"/>
  <path class="cls-17" d="M269.31,366.55c1.47.98,2.85,1.78,4.54,1.64.43-.04.87-.1,1.28-.24.7-.24,1.1-.71,1.11-1.51.01-.78-.3-1.28-1.01-1.59-.92-.4-1.92-.48-2.88-.72-2-.5-2.97-1.65-2.94-3.5.03-1.79,1.23-3.08,3.15-3.52,1.11-.26,2.19-.16,3.29.03,2.1.37,2.24.55,1.96,2.8-1.23-.82-2.5-1.44-4-1.35-.45.03-.86.12-1.27.29-.65.28-1.02.78-1.04,1.47-.02.74.33,1.3,1.04,1.6.92.38,1.91.51,2.88.73,1.93.43,2.92,1.52,2.97,3.21.05,1.7-1.22,3.28-2.95,3.74-1.92.51-3.76.17-5.56-.53-.43-.17-.63-.41-.58-.89.04-.48,0-.96,0-1.66h.01Z"/>
  <path class="cls-17" d="M258.92,366.5c1.55,1.02,2.92,1.83,4.61,1.69.43-.04.87-.1,1.28-.24.7-.24,1.1-.71,1.12-1.51.01-.78-.3-1.28-1-1.59-.92-.41-1.92-.48-2.88-.72-2-.5-2.97-1.65-2.94-3.5.03-1.79,1.23-3.08,3.15-3.52,1.11-.26,2.19-.16,3.29.03,2.1.37,2.24.54,1.97,2.81-1.3-.89-2.66-1.51-4.24-1.33-.77.08-1.49.29-1.89,1.06-.47.92-.1,1.92.97,2.31.89.32,1.84.48,2.76.7,1.93.45,2.92,1.52,2.97,3.21.05,1.7-1.21,3.28-2.95,3.74-1.92.51-3.78.22-5.55-.55-1.2-.52-.33-1.57-.66-2.58h0Z"/>
  <path class="cls-5" d="M364.07,354.3c-.89-.28-1.68-.28-2.46-.23-.75.04-1.37.33-1.7,1.08-.64,1.42-.29,2.02,1.21,2.02.36,0,.72.04,1.08,0,.68-.08.96.08.98.88.02.89-.44.82-1.03.82-2.41,0-2.41.02-2.41,2.39,0,.8.02,1.6,0,2.39-.06,1.98.17,3.97-.16,5.94-.01.07-.59.07-.9.06-.31,0-.85.13-.89-.12-.3-1.97-.09-3.97-.13-5.95-.03-1.28-.03-2.55,0-3.83.02-.62-.08-.99-.82-.89-.76.1-.54-.5-.56-.89-.02-.38-.1-.89.55-.78.83.14.89-.36.91-.98.09-3.64,3.11-4.61,5.91-3.83.88.25.22,1.21.44,1.93h-.02Z"/>
  <path class="cls-5" d="M147.37,367.52c.12,2.51.31,1.99-1.95,2.31-2.42.35-3.93-1.18-3.99-3.77-.05-2.08-.02-4.15,0-6.23,0-.59.05-1.15-.83-.99-.73.13-.62-.4-.61-.83,0-.41-.15-.97.59-.84.86.15.88-.36.84-.98-.03-.48.06-.97-.02-1.44-.16-1.03.26-1.29,1.23-1.22.64.05.99.16.88.87v.12c.08.86-.39,2.03.22,2.49.57.43,1.68.18,2.55.14.78-.03,1.3.01,1.17,1.04-.07.51-.17.74-.69.66-.08-.01-.16,0-.24,0-.98.08-2.33-.45-2.86.22-.49.62-.15,1.91-.15,2.9,0,1.24-.03,2.48,0,3.71.07,2.05,1.1,2.72,3.1,2.1.23-.07.45-.15.75-.26h0Z"/>
  <path class="cls-8" d="M418.36,360.09c-3.77-1.62-5.21-1.6-6.45.04-1.22,1.62-1.19,5.12.07,6.66,1.28,1.56,2.96,1.56,6.27-.02.3,2.28-.45,3-3.22,3.12-3.42.15-5.79-1.9-6.11-5.32-.12-1.27-.08-2.55.34-3.78,1.3-3.85,5.31-4.68,8.64-3.09,1,.48.28,1.55.48,2.39h-.02Z"/>
  <path class="cls-8" d="M245.68,360.2c-3.19-1.75-5.06-1.77-6.39-.18-1.3,1.55-1.33,5.16-.04,6.75,1.29,1.6,3.19,1.6,6.26-.02.38,2.27-.35,3.06-3.17,3.12-3.74.08-5.69-1.82-6.14-5.27-.15-1.15-.09-2.31.22-3.44,1.18-4.29,5.54-5.07,8.82-3.41.9.45.21,1.51.44,2.46h0Z"/>
  <path class="cls-8" d="M182.58,360.2c-2.26-1.27-4.45-2.37-6.46-.06-1.33,1.53-1.21,5.1.05,6.64,1.28,1.57,3.01,1.57,6.27-.02.31,2.28-.43,2.99-3.21,3.12-3.42.15-5.8-1.89-6.12-5.31-.12-1.27-.08-2.55.34-3.78,1.29-3.84,5.29-4.68,8.63-3.09,1,.48.28,1.55.51,2.51h0Z"/>
  <path class="cls-13" d="M218.44,359.04c1.12-.92,2.1-1.6,3.28-1.83.39-.08,1.03-.28,1.19.15.19.53.16,1.2.03,1.76-.09.42-.62.18-.96.2-.6.03-1.18.04-1.75.27-1.52.62-1.8,1-1.8,2.64,0,2.12-.03,4.23.02,6.35.02.76-.07,1.14-.99,1.1-.8-.03-1.08-.19-1.07-1.05.05-3.47.05-6.94,0-10.42,0-.81.17-1.08,1.04-1.08s1.16.24,1.01,1.07c-.03.19,0,.39,0,.84h0Z"/>
  <path class="cls-13" d="M378.68,359.01c1.11-.84,2.06-1.57,3.24-1.8.4-.08,1.05-.26,1.21.11.21.51.19,1.19.07,1.75-.11.51-.68.23-1.03.24-.61,0-1.19.07-1.74.31-1.12.48-1.88,1.09-1.78,2.57.16,2.18,0,4.39.06,6.58.02.79-.26.95-.95.89-.58-.05-1.14.15-1.12-.86.07-3.51.04-7.02.01-10.54,0-.74.04-1.13.98-1.13s1.2.3,1.06,1.15c-.03.15,0,.32,0,.74h-.01Z"/>
  <path class="cls-24" d="M282.52,363.4c0,1.83-.05,3.66.02,5.49.04.97-.58.71-1.09.74-.53.03-.98.09-.97-.74.05-3.66.05-7.32,0-10.99-.01-.97.58-.71,1.09-.74.53-.03.99-.09.96.74-.06,1.83-.02,3.66-.02,5.49h.01Z"/>
  <path class="cls-24" d="M281.48,354.98c-.94.24-1.16-.13-1.21-1.08-.05-1.13.51-1.04,1.28-1.07.88-.04,1.2.14,1.22,1.13.02,1.1-.46,1.17-1.29,1.02Z"/>
  <path class="cls-2" d="M277.25,90.56c.05-.2.09-.48.2-.73.18-.41.23-1.18.76-.99.52.18-.15.7-.13,1.1,0,.27-.07.55-.11.82-.04.24-.11.54-.38.52-.38-.02-.33-.37-.33-.72h-.01Z"/>
  <path class="cls-21" d="M138.14,194.68c0-3.2.02-6.39-.02-9.59,0-.76.17-1.04.99-1.04,6.51.03,13.03.03,19.54,0,.75,0,.95.23.94.96-.02,6.51-.03,13.03,0,19.54,0,.84-.31.98-1.05.98-6.47-.02-12.95-.03-19.42,0-.8,0-1.01-.24-1.01-1.02.04-3.28.02-6.55.02-9.83h0Z"/>
  <path class="cls-21" d="M369.96,194.81c0,3.24-.02,6.47.02,9.71,0,.79-.22,1.02-1.01,1.02-6.47-.03-12.95-.03-19.42,0-.89,0-1.04-.31-1.04-1.11.03-6.43.03-12.87,0-19.3,0-.84.23-1.08,1.07-1.08,6.43.03,12.87.04,19.3,0,.94,0,1.12.31,1.1,1.17-.05,3.2-.02,6.39-.02,9.59h0Z"/>
  <path class="cls-21" d="M466.87,314.35c0,3.2-.02,6.39.02,9.59,0,.77-.19,1.03-1,1.03-6.51-.03-13.03-.03-19.54,0-.76,0-.94-.26-.93-.97.02-6.51.02-13.03,0-19.54,0-.71.18-.97.93-.97,6.51.03,13.03.03,19.54,0,.81,0,1.01.26,1,1.03-.04,3.28-.02,6.55-.02,9.83h0Z"/>
  <path class="cls-21" d="M41.46,314.24c0-3.24.02-6.47-.02-9.71,0-.77.19-1.03,1-1.03,6.51.03,13.03.03,19.54,0,.76,0,.94.26.93.97-.02,6.51-.02,13.03,0,19.54,0,.71-.17.97-.93.97-6.51-.03-13.03-.03-19.54,0-.81,0-1.01-.26-1-1.03.04-3.24.02-6.47.02-9.71h0Z"/>
  <path class="cls-15" d="M232.14,273.98c-.15-3.19.16-6.12,1.61-8.84.09-.18.18-.35.29-.52.37-.57.77-1.3,1.57-.88.69.37.47,1.14.24,1.73-1.54,4.02-.75,7.72,1.87,10.93,1.5,1.84,3.72,2.95,5.86,4.01.7.35.87.68.82,1.42-.23,3.36,0,6.69.62,10,.17.91.48,1.76.95,2.56.27.46.45.94.1,1.45-.39.57-.95.73-1.57.61-.46-.09-.94-.22-1.34-.46-5.71-3.46-8.96-8.63-10.35-15.06-.51-2.34-.83-4.71-.67-6.94h0Z"/>
  <path class="cls-9" d="M284.72,271.18c.5,1.28,1.25,2.23,2.23,2.97.71.54.71.94.08,1.62-3.49,3.73-6.93,7.51-10.39,11.27-4.94,5.38-9.88,10.76-14.83,16.14-.24.26-.48.51-.73.76-.09-.1-.17-.15-.17-.21-.06-1.31-.77-1.97-2.14-1.97h-2.15c9.47-10.3,18.74-20.4,28.1-30.58h0Z"/>
  <path class="cls-21" d="M253.19,246.68c-2.57-.16-4.71-.34-6.87-.18-1.36.1-2.4-.68-3.1-1.74-.77-1.17-1.61-2.29-2.49-3.37-1.47-1.8-1.58-3.6-.47-5.63,1.64-3,4.12-5.25,6.94-6.95,1.5-.9,3.63-1.23,5.33.33,1.88,1.72,4,3.17,5.36,5.42.58.97.96,2.01,1.35,3.04.38.99.02,1.9-.47,2.74-.96,1.61-1.94,3.21-2.94,4.8-.7,1.12-1.79,1.51-2.64,1.55h0ZM249.38,238.93c-1.96,0-3.91-.02-5.87,0-1.34.02-1.9.77-1.42,2.05.43,1.15.99,2.26,1.53,3.37.36.75.99,1.07,1.85,1.06,2.59-.03,5.19-.03,7.78,0,.92,0,1.54-.35,1.92-1.15.5-1.04,1.02-2.08,1.44-3.15.54-1.39,0-2.17-1.48-2.18-1.92-.02-3.83,0-5.75,0h0Z"/>
  <path class="cls-9" d="M241.83,301.77c-1.92,0-3.64-.03-5.35.01-.71.02-.96-.5-1.3-.91-6.38-7.52-12.74-15.06-19.11-22.59-.77-.91-1.53-1.84-2.33-2.73-.45-.5-.54-.8.18-1.12.95-.43,1.84-.96,2.51-1.79.6-.75.81.05,1.04.31,2.81,3.27,5.59,6.57,8.38,9.86,5.13,6.07,10.26,12.14,15.39,18.21.15.18.29.37.6.75h0Z"/>
  <path class="cls-21" d="M246.01,280.88c3.66.3,6.14-1.53,8.36-3.9.21-.23.37-.62.72-.55.42.09.26.52.29.82.54,5.32.59,10.58-1.94,15.5-.7,1.36-1.36,2.81-2.61,3.8-.22.18-.32.66-.73.44-.35-.18-.21-.57-.19-.87.37-4.84-1-9.3-2.97-13.63-.23-.5-.55-.95-.94-1.61h.01Z"/>
  <path class="cls-19" d="M266.95,217.89c0,3.26-.03,6.51,0,9.77.03,2.51.27,4.95.96,7.43,1.04,3.73.27,7.3-2.52,10.22-1.16,1.22-2.47,2.27-3.86,3.22-2.38,1.61-5.05,1.21-7.67,1.09-.59-.03-1.18-.2-1.77-.32-.71-.14-1.23-.51-1.09-1.3.14-.78.77-1,1.47-.89,1.34.2,2.67.43,4.04.43,2.02,0,3.63-.78,5.27-1.92,3.14-2.19,4.58-5.3,5.46-8.81.25-1,.13-1.93-.28-2.91-.79-1.88-.58-3.93-.76-5.91-.27-2.87-.11-5.75.02-8.62.02-.54.11-1.08.73-1.49h0Z"/>
  <path class="cls-12" d="M231.33,235.81c.33,1.48.74,2.92,1.3,4.34,1.2,3.08,3.5,5.12,6.24,6.64,1.99,1.1,4.26.78,6.44.44.47-.07.95-.16,1.42-.15.65,0,1.05.4,1.11,1.04.06.59-.28,1-.84,1.16-.57.16-1.17.24-1.75.36-7.79,1.7-13.97-4.72-14.71-9.78-.23-1.59-.19-3.18.21-4.75.5-.02.3.54.58.7h0Z"/>
  <path class="cls-11" d="M257.65,270.98c1.96,1.74,3.32,3.74,3.66,6.2.44,3.21-.13,6.28-2.07,8.99-.18.25-.29.7-.66.58-.42-.14-.29-.6-.25-.95.2-1.74.48-3.46.12-5.22-.32-1.6-1.41-2.74-2.27-4.01-.54-.79-.67-1.43-.04-2.24.74-.94,1.15-2.07,1.5-3.36h.01Z"/>
  <path class="cls-22" d="M233.5,201.18c0,2.01-.7,3.08-2.08,3.36-.39.08-.82.19-1.06-.26-.22-.4-.49-.75-.16-1.3.77-1.31.69-2.34-.11-3.16-.84-.87-1.72-.89-3.23-.07-.79.43-1.55.05-2.31-.09-.27-.05-.2-.23-.14-.44.56-2.14,2.63-3.54,5.15-3.46,1.65.05,3.38,1.8,3.74,3.81.11.59.16,1.18.21,1.61h-.01Z"/>
  <path class="cls-22" d="M267.38,199.85c.65-1.16,1.02-2.33,2.1-3.02,2.86-1.84,6.21-.51,6.96,2.83.27,1.21.37,2.43-.1,3.65-.27.69-.65,1.16-1.37,1.35-.53.14-1.13.47-1.48-.22-.32-.62-.67-1.23-.06-1.97.97-1.17.86-2.45-.14-3.28-1.02-.84-2.31-.68-3.25.49-.87,1.08-1.7.17-2.65.17h0Z"/>
  <path class="cls-19" d="M211.56,255.3c-.67-3.78-2.25-6.95-5.9-8.72-.5-.24-1.41-.34-1.21-.99.15-.5,1.02-.36,1.63-.22,2.9.67,4.42,2.86,5.68,5.27.68,1.3,1.17,2.72,1.1,4.24,0,.32-.04.64-.13.94-.12.37-.26.84-.77.78-.61-.07-.37-.59-.4-.95v-.36h0Z"/>
  <path class="cls-19" d="M290.15,256.28c.01-3.61,4.14-9.21,7.83-9.27.16,0,.32-.07.47-.05.43.05,1.03.06,1.09.53.06.44-.53.52-.89.64-4.26,1.4-6.53,4.45-7.29,8.76-.05.3.02.69-.45.7-.39,0-.55-.3-.63-.61-.08-.3-.11-.62-.13-.68v-.02Z"/>
  <path class="cls-23" d="M259.21,314.3c0,3.24-.02,6.47.02,9.71,0,.78-.22,1.03-1.02,1.03-6.51-.03-13.03-.03-19.54,0-.87,0-1.06-.31-1.06-1.11.03-6.47.03-12.95,0-19.42,0-.83.23-1.1,1.08-1.09,6.47.03,12.95.04,19.42,0,.93,0,1.13.31,1.12,1.17-.05,3.24-.02,6.47-.02,9.71ZM248.34,324.79h9.59c.61,0,1.06,0,1.05-.85-.03-6.47-.02-12.94,0-19.41,0-.7-.26-.87-.91-.87-6.43.02-12.86.02-19.29,0-.76,0-.93.27-.93.98.02,6.39.03,12.78,0,19.17,0,.81.28,1,1.04,1,3.15-.04,6.31-.01,9.47-.01h-.02Z"/>
  <path class="cls-7" d="M319.2,275.04c-.21,1.64-.35,3.13-.59,4.61-.27,1.61-1.89,3.04-3.51,3.07-1.67.03-3.34-.07-5.01-.14-.24,0-.64.11-.66-.3,0-.29.29-.45.55-.57.42-.21.86-.09,1.29-.06,1.45.1,2.83-.11,4.24-.51,1.57-.45,2.32-1.42,2.55-2.94.1-.63.17-1.26.27-1.89.07-.47.14-.94.87-1.26h0Z"/>
  <path class="cls-26" d="M182.03,271.1c.75.44.67,1.02.68,1.57.08,3.99.85,4.87,4.81,5.62.71.13,1.42.19,2.14.19.64,0,1.17.16,1.35,1.01-2.45.01-4.82-.22-7.1-.9-.88-.26-1.33-1.28-1.5-2.17-.33-1.71-.46-3.46-.38-5.32h0Z"/>
  <path class="cls-6" d="M231.33,235.81c-.28-.16-.08-.72-.58-.7,1.35-2.45.89-5.15,1.01-7.76.11-2.41.02-4.84.19-7.26,1.16,2.59.63,5.29.64,7.96,0,2.66.32,5.36-1.26,7.76h0Z"/>
  <path class="cls-25" d="M297.5,282.55c-1.19-2.01-2.29-3.69-1.88-5.88.08-.44.28-.82.47-1.21.24-.5.64-.71,1.17-.58.57.14.76.64.66,1.12-.29,1.36-.12,2.68.09,4.02.12.79-.36,1.44-.51,2.53Z"/>
  <path class="cls-16" d="M202.88,280.54c-.5-1.41-.34-2.68.08-3.94.22-.65.14-1.34.1-2.02-.03-.62,0-1.27.78-1.4.76-.12,1.02.46,1.23,1.05.38,1.11.3,2.23-.16,3.27-.49,1.08-1.09,2.13-2.02,3.04h0Z"/>
  <path class="cls-16" d="M315.22,277.18c-1.52-.19-2.49-1.11-3.42-2.09-.47-.5-1.09-.78-1.7-1.07-.54-.25-.97-.65-.74-1.31.22-.64.77-.71,1.38-.6,1.38.24,2.4,1.01,3.13,2.17.56.9,1.15,1.8,1.36,2.9h0Z"/>
  <path class="cls-22" d="M185.64,273.65c.98-1.79,1.8-3.57,3.8-4.32.33-.12.67-.23,1.02-.28.65-.08,1.36-.14,1.56.68s-.45,1.11-1.07,1.31c-.73.24-1.39.58-1.95,1.1-.89.83-1.93,1.34-3.36,1.5h0Z"/>
  <path class="cls-25" d="M181.22,256.85c.81-1.25,1.63-2.4,2.86-3.19.58-.37,1.21-.62,1.9-.63.67,0,1.5-.13,1.65.76.15.9-.63,1.05-1.31,1.21-.7.17-1.34.48-1.93.91-.91.65-1.91,1.07-3.17.94Z"/>
  <path class="cls-26" d="M296.63,285.32h-.74c-1.35-.03-2.77-1.13-3.1-2.44-.03-.13-.02-.33.05-.43.13-.18.35-.19.54-.06.43.28.92.46,1.27.88,1.27,1.53,3.08,1.67,4.66.35.37-.31.67-.7,1.06-.96.45-.3.97-.24,1.25.26.29.5-.28.55-.53.75-.53.42-1.08.83-1.6,1.26-.84.69-1.8.51-2.85.41v-.02Z"/>
  <path class="cls-7" d="M321.06,265.74c.19-.86.78-.95,1.32-1.03,1.15-.16,1.78-.89,2.04-1.92.33-1.27.69-2.57-.16-3.81-.21-.3-.3-.68-.06-1.01.13-.18.33-.37.54-.43.31-.08.35.23.44.44.48,1.19.76,2.45.92,3.71.16,1.26-.57,2.24-1.6,2.89-1.01.64-2.13,1.05-3.44,1.16h0Z"/>
  <path class="cls-25" d="M321.41,261.03c-1.43-.11-2.45-.74-3.38-1.58-.48-.43-1.06-.69-1.67-.89-.58-.19-1.19-.49-1-1.25s.86-.7,1.47-.65c1.23.11,2.17.75,2.92,1.66.65.79,1.24,1.64,1.66,2.71h0Z"/>
  <path class="cls-26" d="M204.48,283.66c-2.09.3-3.99-.34-5.41-2.19-.19-.24-.77-.32-.37-.81.29-.35.72-.4,1.09-.17.29.18.51.49.74.76.83,1.01,1.84,1.6,3.21,1.57.65-.02,1.17-.16,1.56-.7.09-.13.18-.28.31-.36.55-.35,1.24-1.08,1.75-.59.53.51-.41.93-.71,1.37-.47.69-.91,1.49-2.16,1.12h0Z"/>
  <path class="cls-26" d="M181.05,261.58c-1.5-.2-2.61-1-3.7-1.8-1.12-.82-.94-2.07-.71-3.19.19-.96.65-1.88,1.04-2.79.13-.3.15-.96.74-.64.47.25.63.79.26,1.24-.72.87-.84,1.86-.77,2.92.09,1.54.49,2.83,2.24,3.23.45.1.92.32.89,1.03h.01Z"/>
  <path class="cls-26" d="M308.21,245.29c0,.37-.27.38-.51.39-1.66.06-3.21.45-4.56,1.49-.33.25-.76.23-1.06-.16-.25-.33-.2-.65.01-.99.87-1.44,4.68-2.08,5.89-.98.09.08.15.18.22.25h0Z"/>
  <path class="cls-12" d="M197.75,242.06c1.73-.02,2.9.51,3.89,1.44.43.4.75.95.23,1.45-.45.45-.92.16-1.34-.22-1.09-.99-2.41-1.46-3.84-1.66-.25-.04-.65.03-.68-.33-.03-.41.37-.45.67-.51.47-.09.94-.15,1.07-.17h0Z"/>
  <path class="cls-7" d="M215.12,260.6c1.29.67,2.75,4.04,2.32,5.23-.07.21-.17.36-.4.38-.23.03-.41-.09-.44-.31-.14-.9-.18-1.82-.53-2.68-.34-.83-1.03-1.54-.95-2.62h0Z"/>
  <path class="cls-7" d="M287.25,261.21c.15.46-.02.88-.28,1.22-.82,1.06-1.35,2.24-1.55,3.57-.04.27-.08.6-.46.59-.34,0-.45-.25-.49-.56-.16-1.32,1.56-4.28,2.8-4.81h-.02Z"/>
  <path class="cls-25" d="M271.11,204.53c-.79.82-1.55.63-2.29.14-.42-.28-.31-.68-.11-1.05.21-.38.53-.3.81-.13.53.32,1.03.67,1.59,1.04h0Z"/>
  <path class="cls-25" d="M227.93,204.28c-.72.79-1.44.63-2.18.22-.45-.25-.44-.64-.28-1.02.21-.5.6-.43.98-.19.49.31.97.64,1.49.98h-.01Z"/>
  <polygon class="cls-7" points="287.26 261.23 287.31 261.2 287.25 261.21 287.26 261.23"/>
  <path class="cls-10" d="M249.38,238.93c1.92,0,3.83,0,5.75,0,1.48,0,2.03.79,1.48,2.18-.42,1.07-.94,2.11-1.44,3.15-.38.79-1,1.16-1.92,1.15-2.59-.03-5.19-.03-7.78,0-.86,0-1.48-.3-1.85-1.06-.54-1.11-1.1-2.22-1.53-3.37-.48-1.27.07-2.03,1.42-2.05,1.95-.02,3.91,0,5.87,0h0Z"/>
  <path class="cls-3" d="M248.34,324.79c-3.16,0-6.31-.02-9.47.01-.76,0-1.04-.18-1.04-1,.03-6.39.03-12.78,0-19.17,0-.7.17-.98.93-.98,6.43.03,12.86.02,19.29,0,.65,0,.91.17.91.87-.02,6.47-.03,12.94,0,19.41,0,.86-.44.85-1.05.85-3.2-.01-6.39,0-9.59,0h.02Z"/>
</svg>